<svg width="1004" height="426" viewBox="0 0 1004 426" fill="none" xmlns="http://www.w3.org/2000/svg">
<path d="M284.37 209.834C264.517 205.167 243.035 200.36 219.924 195.415C196.813 190.47 174.178 187.749 152.018 187.251L182.655 255.496L284.37 209.834ZM391.972 237.782L211.145 318.959L225.585 351.126L172.554 374.932L158.114 342.766L90.7383 373.012L62.2482 309.549L129.624 279.303L71.2775 149.333L118.658 128.063C134.27 128.714 152.192 130.244 172.424 132.652C192.945 134.93 214.211 138.092 236.222 142.138C258.654 146.344 280.91 151.324 302.993 157.08C325.075 162.835 345.563 169.306 364.458 176.492L391.972 237.782Z" fill="#619EC9"/>
<path d="M631.175 279.754C599.56 325.477 566.509 354.566 532.022 367.022C497.977 379.397 465.67 375.016 435.101 353.879C404.532 332.742 388.895 303.973 388.191 267.57C387.928 231.087 403.605 189.984 435.22 144.262C450.937 121.531 467.068 102.948 483.614 88.5142C500.421 74.2607 517.29 64.1055 534.223 58.0486C551.155 51.9917 567.798 49.9831 584.152 52.0227C600.507 54.0624 616.13 60.2309 631.023 70.5284C661.592 91.6652 677.007 120.475 677.27 156.958C677.974 193.361 662.609 234.293 631.175 279.754ZM571.604 238.564C580.998 224.978 588.836 212.247 595.117 200.37C601.579 188.232 606.173 177.119 608.9 167.033C611.626 156.946 612.043 147.966 610.15 140.092C608.257 132.217 603.652 125.751 596.337 120.693C589.021 115.634 581.346 113.61 573.31 114.619C565.536 115.809 557.281 119.37 548.546 125.301C540.071 131.413 531.297 139.635 522.222 149.967C513.328 160.037 504.184 171.865 494.79 185.451C485.396 199.037 477.468 211.9 471.006 224.038C464.544 236.176 459.95 247.288 457.224 257.375C454.759 267.642 454.342 276.622 455.974 284.316C457.867 292.19 462.471 298.656 469.787 303.715C477.102 308.773 484.778 310.798 492.813 309.789C500.849 308.779 509.103 305.219 517.578 299.106C526.052 292.994 534.827 284.772 543.901 274.441C552.976 264.109 562.21 252.151 571.604 238.564Z" fill="#619EC9"/>
<path d="M890.885 289.612C877.145 274.542 862.139 258.437 845.867 241.295C829.596 224.154 812.46 209.117 794.46 196.182L781.166 269.798L890.885 289.612ZM963.86 373.482L768.802 338.255L762.536 372.953L705.332 362.622L711.598 327.924L638.921 314.799L651.284 246.342L723.961 259.467L749.28 119.269L800.389 128.499C812.901 137.86 826.822 149.251 842.152 162.671C857.794 176.148 873.551 190.776 889.423 206.554C905.552 222.701 921.098 239.388 936.063 256.616C951.028 273.844 964.273 290.761 975.799 307.368L963.86 373.482Z" fill="#619EC9"/>
</svg>
