<svg xmlns="http://www.w3.org/2000/svg" width="494" height="196" fill="none"><path stroke="#FF4661" stroke-linecap="round" stroke-linejoin="round" stroke-width="20.619" d="M247 67.071v41.238m-78.569 22.679c-9.376 16.239-14.063 24.362-13.363 31.025a20.62 20.62 0 0 0 8.389 14.526c5.418 3.937 14.788 3.937 33.527 3.937h100.032c18.739 0 28.107 0 33.526-3.937a20.63 20.63 0 0 0 8.39-14.526c.7-6.663-3.985-14.786-13.361-31.025l-49.998-86.6c-9.376-16.239-14.066-24.357-20.186-27.082a20.63 20.63 0 0 0-16.777 0c-6.118 2.724-10.805 10.842-20.173 27.068zm79.093 8.25v1.031l-1.037.002v-1.033z" opacity=".1"/></svg>