<svg xmlns="http://www.w3.org/2000/svg" width="25" height="25" fill="none"><path stroke="#619EC9" stroke-linecap="round" stroke-linejoin="round" stroke-width="2" d="M9.989 7.5H6.7c-1.12 0-1.68 0-2.108.218a2 2 0 0 0-.874.874C3.5 9.02 3.5 9.58 3.5 10.7v5.6c0 1.12 0 1.68.218 2.107.192.377.497.683.874.875.427.218.987.218 2.105.218h11.606c1.118 0 1.677 0 2.104-.218.377-.192.683-.498.875-.875.218-.427.218-.986.218-2.104v-5.606c0-1.118 0-1.678-.218-2.105a2 2 0 0 0-.875-.874C19.98 7.5 19.42 7.5 18.3 7.5h-3.29m-5.021 0h.062m-.062 0h.062m-.062 0c-.106 0-.166 0-.213-.006a1 1 0 0 1-.867-1.203c.012-.054.034-.122.08-.257l.001-.006c.052-.154.077-.23.106-.299a2 2 0 0 1 1.699-1.224c.073-.005.154-.005.316-.005h2.778c.162 0 .243 0 .317.005a2 2 0 0 1 1.698 1.224c.029.068.054.145.106.3.046.138.07.207.08.262a1 1 0 0 1-.866 1.203 2 2 0 0 1-.213.006m-4.96 0h4.898m0 0h.062m-.062 0h.062m-2.511 9a3 3 0 1 1 0-6 3 3 0 0 1 0 6"/></svg>