<svg width="24" height="24" viewBox="0 0 24 24" fill="none" xmlns="http://www.w3.org/2000/svg">
<g clip-path="url(#clip0_2205_5525)">
<mask id="mask0_2205_5525" style="mask-type:luminance" maskUnits="userSpaceOnUse" x="-5" y="-5" width="34" height="34">
<path d="M-4.80078 -4.80019H28.7992V28.7998H-4.80078V-4.80019Z" fill="white"/>
</mask>
<g mask="url(#mask0_2205_5525)">
<path d="M24 11.9998C24 5.37235 18.6274 -0.000246048 12 -0.000246048C5.37259 -0.000246048 0 5.37235 0 11.9998C0 17.6275 3.87432 22.3496 9.10109 23.6464V15.6668H6.62659V11.9998H9.10109V10.4196C9.10109 6.33523 10.9495 4.44211 14.9594 4.44211C15.7196 4.44211 17.0314 4.59115 17.568 4.74023V8.06443C17.2848 8.03462 16.7929 8.01969 16.1817 8.01969C14.214 8.01969 13.4538 8.76503 13.4538 10.7029V11.9998H17.3734L16.7001 15.6668H13.4538V23.9119C19.3955 23.1942 24 18.135 24 11.9998Z" fill="#185580"/>
<path d="M16.6985 15.6668L17.3719 11.9998H13.4522V10.7028C13.4522 8.76499 14.2125 8.01969 16.1801 8.01969C16.7913 8.01969 17.2832 8.03457 17.5665 8.06438V4.74024C17.0298 4.59115 15.718 4.44206 14.9578 4.44206C10.9479 4.44206 9.0995 6.33523 9.0995 10.4196V11.9998H6.625V15.6668H9.0995V23.6464C10.028 23.8767 10.9988 23.9998 11.9984 23.9998C12.4906 23.9998 12.9756 23.9694 13.4522 23.9119V15.6668H16.6985Z" fill="white"/>
</g>
</g>
<defs>
<clipPath id="clip0_2205_5525">
<rect width="24" height="24" fill="white"/>
</clipPath>
</defs>
</svg>
