<svg xmlns="http://www.w3.org/2000/svg" width="14" height="14" fill="none"><path stroke="#619EC9" stroke-linecap="round" stroke-linejoin="round" stroke-width="1.5" d="m4.333 7 2 2L8 7l1.666-2m-8 5.2V3.8c0-.747 0-1.12.146-1.405.128-.251.331-.455.582-.583.286-.145.66-.145 1.406-.145h6.4c.747 0 1.12 0 1.405.145.25.128.455.332.583.583.145.285.145.658.145 1.403v6.405c0 .745 0 1.117-.145 1.402-.128.251-.332.455-.583.583-.285.145-.658.145-1.403.145H3.798c-.745 0-1.119 0-1.404-.145a1.33 1.33 0 0 1-.582-.583c-.145-.285-.145-.658-.145-1.405"/></svg>