<svg xmlns="http://www.w3.org/2000/svg" width="222" height="132" fill="none"><path fill="#185580" d="M75.783 115.127q14.169 0 25.713-8.92 11.545-9.447 22.04-31.486-10.495-22.04-22.04-30.96-11.544-9.446-25.713-9.446-14.693 0-26.238 10.495-11.02 9.97-11.02 29.911t11.02 30.436q11.546 9.97 26.238 9.97m63.496-6.297q-4.723 7.347-11.02 14.694-6.297 6.821-14.693 12.594t-18.367 9.445q-9.97 3.674-21.515 3.674-9.97 0-22.564-3.149-12.595-3.674-24.14-12.069-11.02-8.922-18.89-23.09Q.742 96.236.742 74.721t7.346-35.684q7.872-14.692 18.892-23.089 11.544-8.92 24.139-12.07Q63.714.207 73.684.206 85.23.205 95.2 3.88t18.367 9.445 14.693 13.12 11.02 14.168q4.723-6.822 11.02-14.169 6.297-7.346 14.693-13.119t18.367-9.445q9.97-3.674 21.515-3.674 9.97 0 22.564 3.674 12.595 3.149 23.615 12.069 11.544 8.397 18.891 23.09 7.87 14.168 7.871 35.683 0 21.515-7.871 36.208-7.347 14.168-18.891 23.09-11.02 8.396-23.615 12.069-12.594 3.149-22.564 3.149-11.545 0-21.515-3.674t-18.367-9.445q-8.396-5.773-14.693-12.594-6.297-7.347-11.02-14.694m63.496 6.297q14.693 0 25.713-9.97 11.544-10.495 11.545-30.436 0-19.94-11.545-29.911-11.02-10.495-25.713-10.495-14.169 0-25.713 9.445-11.545 8.922-22.04 30.961 10.495 22.04 22.04 31.486 11.544 8.92 25.713 8.92" opacity=".1"/></svg>