<svg xmlns="http://www.w3.org/2000/svg" width="270" height="141" fill="none"><path fill="#185580" d="M70.506 42.21q0 5.786-2.284 11.114-2.282 5.328-5.937 10.351-3.653 4.872-8.22 9.438a350 350 0 0 1-8.981 8.677 205 205 0 0 0-5.024 4.872 125 125 0 0 0-5.024 5.328 154 154 0 0 0-4.414 5.176q-1.828 2.283-2.284 3.805h45.365V120H3.373q-.305-1.674-.305-4.262v-3.654q0-7.307 2.284-13.396a50.7 50.7 0 0 1 6.241-11.265 72 72 0 0 1 8.525-9.895 835 835 0 0 0 9.59-9.134q3.654-3.501 6.85-6.546 3.198-3.195 5.633-6.089 2.436-3.045 3.806-5.937 1.37-3.045 1.37-6.089 0-6.697-3.806-9.438-3.805-2.74-9.438-2.74-4.11 0-7.764 1.37a35 35 0 0 0-6.546 3.044q-2.892 1.675-5.023 3.502-2.132 1.675-3.197 2.74L.328 26.379q6.698-6.24 15.527-10.2 8.982-4.11 19.181-4.11 9.287 0 15.984 2.131 6.7 2.132 10.961 6.09 4.414 3.805 6.394 9.438 2.13 5.48 2.13 12.483m59.576 0a1057 1057 0 0 0-12.635 16.898q-6.697 9.134-11.265 18.724h23.9zm22.226-27.705v63.327h11.265v18.572h-11.265V120h-22.226V96.404H84.566V79.811q3.348-6.698 8.372-15.07 5.025-8.525 11.113-17.354a314 314 0 0 1 13.092-17.507q6.85-8.525 13.7-15.375zm35.219 133.657h-23.291L215.385.804h22.987zM256.11 120q.914-11.113 3.806-23.139a234 234 0 0 1 7.003-23.595q4.262-11.57 9.438-21.77 5.176-10.35 10.504-17.81H241.04V14.353h73.831v16.44q-4.872 5.33-10.808 14.767-5.785 9.438-11.113 21.464-5.176 11.873-9.134 25.575-3.805 13.7-4.719 27.401z" opacity=".1"/></svg>