<svg xmlns="http://www.w3.org/2000/svg" width="199" height="199" fill="none"><path stroke="#185580" stroke-linecap="round" stroke-linejoin="round" stroke-width="27.15" d="M25.295 111.981c-3.394-3.138-1.55-8.811 3.04-9.355l65.039-7.715a5.42 5.42 0 0 0 4.284-3.107l27.433-59.473c1.936-4.197 7.903-4.198 9.839 0l27.432 59.472a5.4 5.4 0 0 0 4.274 3.11l65.043 7.713c4.59.544 6.428 6.219 3.034 9.357l-48.079 44.471a5.41 5.41 0 0 0-1.632 5.03l12.76 64.239c.901 4.533-3.924 8.046-7.957 5.788l-57.15-31.998a5.4 5.4 0 0 0-5.284.004l-57.156 31.986c-4.033 2.258-8.867-1.247-7.966-5.781l12.762-64.234a5.42 5.42 0 0 0-1.63-5.035z" opacity=".1"/></svg>