<svg xmlns="http://www.w3.org/2000/svg" width="24" height="25" fill="none"><g clip-path="url(#a)"><mask id="b" width="34" height="35" x="-5" y="-5" maskUnits="userSpaceOnUse" style="mask-type:luminance"><path fill="#fff" d="M-4.8-4.3h33.6v33.6H-4.8z"/></mask><g mask="url(#b)"><path fill="#185580" d="M24 12.5c0-6.627-5.373-12-12-12S0 5.873 0 12.5c0 5.628 3.874 10.35 9.101 11.647v-7.98H6.627V12.5H9.1v-1.58c0-4.085 1.848-5.978 5.858-5.978.76 0 2.072.15 2.609.298v3.325c-.283-.03-.775-.045-1.386-.045-1.968 0-2.728.745-2.728 2.683V12.5h3.92l-.674 3.667h-3.246v8.245C19.395 23.695 24 18.635 24 12.5"/><path fill="#fff" d="m16.7 16.167.673-3.667h-3.92v-1.297c0-1.938.761-2.683 2.729-2.683.61 0 1.103.015 1.386.045V5.24c-.537-.149-1.849-.298-2.609-.298-4.01 0-5.858 1.893-5.858 5.978v1.58H6.627v3.667H9.1v7.98a12 12 0 0 0 4.353.265v-8.245z"/></g></g><defs><clipPath id="a"><path fill="#fff" d="M0 .5h24v24H0z"/></clipPath></defs></svg>