<svg xmlns="http://www.w3.org/2000/svg" width="24" height="25" fill="none"><path stroke="#185580" stroke-linecap="round" stroke-linejoin="round" stroke-width="2" d="M5 10.423c0 4.852 4.244 8.864 6.123 10.402.27.22.405.332.606.388.156.044.386.044.542 0 .201-.056.336-.167.606-.388C14.756 19.287 19 15.275 19 10.423a6.89 6.89 0 0 0-2.05-4.895A7.04 7.04 0 0 0 12 3.5a7.04 7.04 0 0 0-4.95 2.028A6.88 6.88 0 0 0 5 10.423"/><path stroke="#185580" stroke-linecap="round" stroke-linejoin="round" stroke-width="2" d="M10 9.5a2 2 0 1 0 4 0 2 2 0 0 0-4 0"/></svg>