<svg xmlns="http://www.w3.org/2000/svg" width="32" height="32" fill="none"><g clip-path="url(#a)"><circle cx="16" cy="16" r="16" fill="#fff"/><path fill="#185580" d="M22.226 11.162c.863.713 3.231 2.671 2.846 4.046-.179.617-.888.815-1.414 1.008-1.21.439-2.454.786-3.718 1.041-1.022.208-3.207.661-2.802-1.147.16-.7.723-1.293 1.177-1.819.93-1.094 1.88-2.252 3.004-3.149a.39.39 0 0 1 .3-.077.58.58 0 0 1 .607.097M20.953 25.59c-.758-.612-1.293-1.571-1.756-2.41-.453-.81-1.167-1.881-1.287-2.822-.246-1.934 2.555-.771 3.36-.492 1.072.377 3.941.791 3.623 2.465-.265 1.364-1.91 3.028-3.284 3.24-.015.005-.034 0-.054 0l-.014.015q-.059.032-.125.063c-.164.087-.323.053-.463-.058M14.688 20.613c1.524-.631 1.664 1.071 1.654 2.103a59 59 0 0 1-.144 3.69c-.034.496-.015 1.094-.487 1.408-.584.386-1.708.082-2.31-.106a.3.3 0 0 0-.058-.024c-1.269-.222-2.817-.806-2.966-1.978a.45.45 0 0 1 .12-.347q.058-.108.12-.203c.189-.26.406-.491.623-.728q.551-.817 1.182-1.577c.607-.733 1.355-1.861 2.266-2.238M14.91 15.328c-2.223-1.828-4.389-4.659-5.508-7.277-.853-1.992 1.317-3.207 2.99-3.757 2.257-.743 3.154-.097 3.381 2.16a57 57 0 0 1 .26 5.855c-.004.825.227 2.156-.255 2.898.077.304-.381.521-.642.314-.038-.029-.077-.068-.12-.101a.5.5 0 0 1-.106-.092M14.669 18.16c.178.79-.381 1.108-1.037 1.407a26 26 0 0 1-3.622 1.293c-.714.198-1.808.67-2.498.145-.52-.396-.555-1.22-.603-1.819-.106-1.335.097-4.523 1.949-4.658.906-.063 2.04.747 2.782 1.172.989.569 2.05 1.22 2.788 2.112.11.063.202.174.24.347"/></g><defs><clipPath id="a"><path fill="#fff" d="M0 0h32v32H0z"/></clipPath></defs></svg>