<svg xmlns="http://www.w3.org/2000/svg" width="122" height="61" fill="none"><path fill="#fff" d="M109.655.936q5.188 0 7.947 1.862 2.76 1.828 2.76 5.719 0 2.427-1.13 3.957-1.098 1.496-3.192 2.36.698.865 1.463 1.996.765 1.097 1.496 2.327.765 1.197 1.463 2.527a55 55 0 0 1 1.297 2.56h-5.819a281 281 0 0 0-1.297-2.294 38 38 0 0 0-1.33-2.26 42 42 0 0 0-1.33-2.062 21 21 0 0 0-1.33-1.796h-2.56v8.413h-5.188V1.535a30 30 0 0 1 3.492-.466 45 45 0 0 1 3.258-.133m.3 4.422q-.566 0-1.031.033-.432.034-.831.067v6.251h1.463q2.925 0 4.189-.732 1.264-.731 1.264-2.493 0-1.696-1.297-2.394-1.263-.732-3.757-.732M80.326 12.707q0 1.695.4 3.06.432 1.362 1.197 2.36a5.5 5.5 0 0 0 1.928 1.496q1.13.532 2.594.532 1.43 0 2.56-.532a5.16 5.16 0 0 0 1.929-1.496q.797-.998 1.197-2.36.432-1.365.432-3.06t-.432-3.06q-.399-1.395-1.197-2.36a5 5 0 0 0-1.929-1.53q-1.13-.532-2.56-.532-1.464 0-2.594.566a5.4 5.4 0 0 0-1.928 1.53q-.765.963-1.198 2.36-.399 1.364-.399 3.026m17.59 0q0 2.96-.897 5.22-.865 2.229-2.395 3.758-1.53 1.496-3.657 2.26-2.095.766-4.522.766a12.9 12.9 0 0 1-4.456-.765 10.4 10.4 0 0 1-3.658-2.261q-1.563-1.53-2.46-3.758-.898-2.26-.898-5.22t.931-5.187q.93-2.262 2.494-3.79a10.5 10.5 0 0 1 3.657-2.295Q84.15.67 86.446.67q2.361 0 4.455.765a10.1 10.1 0 0 1 3.658 2.294q1.563 1.53 2.46 3.79.899 2.229.898 5.188M70.308 16.497q0 1.695-.4 3.192a6.3 6.3 0 0 1-1.33 2.627q-.93 1.097-2.56 1.762-1.596.632-4.056.632-2.261 0-3.89-.532-1.63-.566-2.694-1.297l1.73-4.023q.964.565 2.06.997 1.098.432 2.395.433 1.894 0 2.727-.932.83-.93.83-3.125V1.2h5.188zM47.4 24.244a46 46 0 0 0-.83-2.46l-.865-2.527h-8.978q-.432 1.263-.898 2.527a78 78 0 0 0-.798 2.46h-5.386a411 411 0 0 1 2.46-6.883q1.164-3.159 2.261-5.952a308 308 0 0 1 2.195-5.287 127 127 0 0 1 2.261-4.92h4.954a171 171 0 0 1 2.228 4.92A143 143 0 0 1 48.2 11.41a202 202 0 0 1 2.294 5.952q1.164 3.159 2.46 6.883zM41.184 6.422q-.166.498-.499 1.363-.332.864-.765 1.995-.432 1.13-.964 2.494-.498 1.363-1.03 2.86h6.55q-.533-1.497-1.031-2.86a67 67 0 0 0-.964-2.494q-.432-1.131-.765-1.995-.334-.864-.532-1.363M7.584 1.201q.598 1.097 1.363 2.727a77 77 0 0 1 1.63 3.491 123 123 0 0 1 1.695 3.824l1.563 3.691q.73-1.73 1.563-3.69a219 219 0 0 1 1.662-3.825q.865-1.895 1.63-3.491A72 72 0 0 1 20.086 1.2h4.722q.332 2.295.598 5.154.3 2.826.5 5.919.231 3.06.398 6.151.2 3.093.333 5.82h-5.055a597 597 0 0 0-.266-7.316q-.166-3.957-.498-7.98l-1.33 3.092-1.463 3.392q-.699 1.696-1.364 3.258-.665 1.53-1.13 2.627h-3.625a327 327 0 0 0-1.13-2.627 710 710 0 0 0-1.397-3.258q-.698-1.695-1.43-3.392L6.62 8.95a198 198 0 0 0-.498 7.98q-.167 3.957-.266 7.315H.8q.133-2.726.3-5.819l.399-6.151q.232-3.093.498-5.919.3-2.859.632-5.154zM116.378 50.834q1.945 0 2.98.698 1.035.686 1.035 2.145 0 .91-.424 1.484-.411.561-1.197.885.263.325.549.748.286.413.561.873.287.45.549.948.261.486.486.96h-2.182q-.237-.425-.486-.86a15 15 0 0 0-.499-.848 16 16 0 0 0-.499-.773 8 8 0 0 0-.499-.674h-.96v3.155h-1.945v-8.517q.636-.124 1.309-.174.686-.05 1.222-.05m.112 1.658q-.212 0-.386.013l-.312.025v2.344h.549q1.097 0 1.571-.274.474-.275.474-.936 0-.635-.487-.897-.473-.275-1.409-.275M109.652 50.934h1.945v8.64h-1.945zM106.202 59.575q-.136-.45-.312-.923l-.324-.948h-3.367q-.162.474-.336.948-.162.474-.3.923h-2.02q.487-1.397.923-2.581.437-1.185.848-2.232.424-1.048.823-1.983a47 47 0 0 1 .848-1.845h1.858q.424.897.835 1.845.412.935.823 1.983.424 1.047.861 2.232.436 1.185.922 2.58zm-2.332-6.684q-.062.187-.187.512l-.287.748q-.162.423-.361.935-.187.51-.387 1.072h2.457a115 115 0 0 0-.387-1.072q-.187-.512-.361-.935l-.287-.748q-.125-.325-.2-.512M95.588 50.834q1.933 0 2.968.686 1.035.673 1.035 2.22 0 1.557-1.048 2.256-1.047.686-2.992.686h-.611v2.893h-1.945v-8.517q.635-.124 1.346-.174t1.247-.05m.125 1.658a7 7 0 0 0-.424.013q-.2.013-.35.025v2.494h.612q1.01 0 1.52-.275.513-.274.512-1.022 0-.361-.137-.599a.9.9 0 0 0-.374-.374 1.5 1.5 0 0 0-.586-.2 4.4 4.4 0 0 0-.773-.062M85.183 59.575v-8.641h5.836v1.633h-3.89v1.696h3.453v1.596H87.13v2.082h4.177v1.634zM79.148 50.834q1.945 0 2.98.698 1.035.686 1.035 2.145 0 .91-.424 1.484-.411.561-1.197.885.262.325.549.748.286.413.56.873.288.45.55.948.261.486.486.96h-2.182q-.237-.425-.487-.86a14 14 0 0 0-.498-.848 16 16 0 0 0-.5-.773 8 8 0 0 0-.498-.674h-.96v3.155h-1.945v-8.517q.636-.124 1.309-.174.685-.05 1.222-.05m.112 1.658q-.212 0-.386.013l-.312.025v2.344h.549q1.097 0 1.57-.274.475-.275.475-.936 0-.635-.487-.897-.474-.275-1.409-.275M65.56 59.575v-8.641h5.836v1.633h-3.89v1.696h3.454v1.596h-3.454v2.082h4.177v1.634zM61.166 59.75q-2.107 0-3.217-1.172-1.097-1.173-1.097-3.33 0-1.072.336-1.907.337-.849.923-1.422.585-.586 1.397-.885.81-.3 1.758-.3.549 0 .997.088.45.075.786.187a3.5 3.5 0 0 1 .885.386l-.56 1.571a4.7 4.7 0 0 0-.936-.361q-.524-.15-1.197-.15-.45 0-.885.15-.425.15-.761.486-.323.324-.524.848-.2.524-.2 1.272 0 .599.125 1.122.138.51.424.885.3.375.773.599.474.212 1.148.212.423 0 .76-.05a7 7 0 0 0 .599-.112 4 4 0 0 0 .461-.162q.2-.087.362-.162l.536 1.558q-.41.249-1.16.45-.747.198-1.733.199M53.35 59.575a44 44 0 0 0-1.809-2.93 30 30 0 0 0-2.07-2.731v5.66h-1.92v-8.64h1.584q.412.41.91 1.01.499.599 1.01 1.284.524.674 1.035 1.409.51.724.96 1.396v-5.1h1.933v8.642zM44.1 59.575q-.136-.45-.31-.923l-.325-.948h-3.367q-.162.474-.337.948-.162.474-.299.923h-2.02q.486-1.397.923-2.581.435-1.185.848-2.232.423-1.048.823-1.983.411-.948.848-1.845h1.858q.423.897.835 1.845.411.935.823 1.983.425 1.047.86 2.232.437 1.185.923 2.58zm-2.33-6.684q-.064.187-.188.512l-.287.748q-.162.423-.361.935-.187.51-.387 1.072h2.457q-.2-.56-.387-1.072t-.362-.935zM34.12 50.934h1.946v8.64H34.12zM32.618 57.904v1.67h-5.773v-8.64h1.945v6.97zM21.165 50.834q1.932 0 2.967.686 1.035.673 1.035 2.22 0 1.557-1.047 2.256-1.048.686-2.993.686h-.61v2.893H18.57v-8.517q.636-.124 1.346-.174t1.247-.05m.124 1.658q-.212 0-.424.013-.2.013-.349.025v2.494h.611q1.01 0 1.521-.275.512-.274.512-1.022 0-.361-.138-.599a.9.9 0 0 0-.374-.374 1.5 1.5 0 0 0-.586-.2 4.4 4.4 0 0 0-.773-.062M12.89 50.834q1.933 0 2.968.686 1.035.673 1.035 2.22 0 1.557-1.047 2.256-1.047.686-2.993.686h-.61v2.893h-1.946v-8.517q.636-.124 1.347-.174.71-.05 1.246-.05m.125 1.658q-.211 0-.424.013-.2.013-.349.025v2.494h.611q1.01 0 1.521-.275.512-.274.512-1.022 0-.361-.137-.599a.9.9 0 0 0-.375-.374 1.5 1.5 0 0 0-.586-.2 4.4 4.4 0 0 0-.773-.062M6.847 59.575q-.138-.45-.312-.923l-.324-.948H2.844q-.162.474-.337.948a29 29 0 0 0-.299.923H.188q.486-1.397.923-2.581.435-1.185.848-2.232.424-1.048.823-1.983.411-.948.847-1.845h1.858a64 64 0 0 1 .836 1.845q.41.935.823 1.983.424 1.047.86 2.232.437 1.185.923 2.58zM4.515 52.89a13 13 0 0 1-.187.512l-.287.748q-.162.423-.362.935-.186.51-.386 1.072h2.456q-.2-.56-.386-1.072-.188-.512-.362-.935zM0 36.023h43.643v3.463H0zM63.12 30.206l2.89-.466v3.007h3.473v2.405H66.01v3.588q0 .912.31 1.455.33.543 1.3.543.465 0 .95-.078.504-.096.912-.252l.407 2.25q-.524.214-1.164.369t-1.57.155q-1.185 0-1.96-.31-.776-.33-1.241-.892a3.5 3.5 0 0 1-.66-1.397 8.6 8.6 0 0 1-.174-1.804zM56.007 40.933q.427 0 .815-.02t.62-.058v-2.192a5 5 0 0 0-.523-.077 6 6 0 0 0-.64-.04q-.407 0-.776.059a1.8 1.8 0 0 0-.62.175q-.273.135-.428.368t-.155.582q0 .68.447.95.465.253 1.26.252m-.232-8.457q1.28 0 2.133.29.855.292 1.358.835.524.543.737 1.319t.213 1.726v6.013q-.62.136-1.726.31-1.106.195-2.677.194a8.6 8.6 0 0 1-1.804-.174 4 4 0 0 1-1.377-.563 2.7 2.7 0 0 1-.892-1.047q-.31-.64-.31-1.572 0-.892.349-1.512.368-.621.97-.99.6-.368 1.377-.523a7.3 7.3 0 0 1 1.61-.175q.563 0 .989.058.446.039.718.117v-.272q0-.737-.447-1.183-.445-.446-1.551-.446-.738 0-1.455.116a6 6 0 0 0-1.241.291l-.369-2.327q.252-.078.62-.156.389-.096.835-.155.446-.078.93-.116a9 9 0 0 1 1.01-.058M77.587 36.023h43.642v3.463H77.587z"/></svg>