<svg xmlns="http://www.w3.org/2000/svg" width="32" height="32" fill="none"><path fill="#C1272D" d="M22.226 11.161c.863.714 3.231 2.672 2.845 4.046-.178.618-.887.815-1.413 1.008-1.21.44-2.455.786-3.718 1.042-1.023.207-3.207.66-2.802-1.148.159-.7.723-1.292 1.177-1.818.93-1.095 1.88-2.252 3.004-3.15a.39.39 0 0 1 .3-.076.57.57 0 0 1 .607.096M20.953 25.59c-.758-.612-1.293-1.572-1.756-2.41-.453-.81-1.167-1.882-1.287-2.822-.246-1.934 2.555-.771 3.36-.492 1.072.376 3.941.791 3.623 2.465-.265 1.364-1.91 3.028-3.284 3.24-.015.005-.034 0-.054 0l-.014.015c-.038.019-.082.043-.125.062-.164.087-.323.054-.463-.058M14.688 20.614c1.524-.632 1.664 1.07 1.654 2.102a59 59 0 0 1-.144 3.69c-.034.496-.015 1.094-.488 1.408-.583.386-1.707.082-2.31-.106a.3.3 0 0 0-.057-.024c-1.269-.222-2.817-.806-2.966-1.978a.45.45 0 0 1 .12-.347q.057-.108.12-.202c.189-.26.406-.492.623-.729a20 20 0 0 1 1.181-1.576c.608-.734 1.356-1.862 2.267-2.238M14.91 15.328c-2.223-1.828-4.389-4.659-5.508-7.277-.853-1.992 1.317-3.207 2.99-3.757 2.258-.743 3.155-.097 3.381 2.16a57 57 0 0 1 .26 5.855c-.004.825.227 2.156-.255 2.898.077.304-.381.521-.642.314-.038-.03-.077-.068-.12-.101a.5.5 0 0 1-.106-.092M14.669 18.159c.178.79-.381 1.109-1.037 1.408a26 26 0 0 1-3.622 1.293c-.714.197-1.808.67-2.498.144-.52-.395-.555-1.22-.603-1.818-.106-1.336.097-4.524 1.949-4.659.906-.062 2.04.748 2.782 1.172.989.57 2.05 1.22 2.788 2.113.11.062.202.173.24.347"/></svg>