<svg xmlns="http://www.w3.org/2000/svg" width="33" height="32" fill="none"><path fill="#4285F4" d="M27.06 16.25c0-.78-.07-1.53-.2-2.25H16.5v4.26h5.92c-.26 1.37-1.04 2.53-2.21 3.31v2.77h3.57c2.08-1.92 3.28-4.74 3.28-8.09"/><path fill="#34A853" d="M16.5 27c2.97 0 5.46-.98 7.28-2.66l-3.57-2.77c-.98.66-2.23 1.06-3.71 1.06-2.86 0-5.29-1.93-6.16-4.53H6.68v2.84C8.49 24.53 12.2 27 16.5 27"/><path fill="#FBBC05" d="M10.34 18.09c-.22-.66-.35-1.36-.35-2.09s.13-1.43.35-2.09v-2.84H6.68C5.93 12.55 5.5 14.22 5.5 16s.43 3.45 1.18 4.93l2.85-2.22z"/><path fill="#EA4335" d="M16.5 9.38c1.62 0 3.06.56 4.21 1.64l3.15-3.15C21.95 6.09 19.47 5 16.5 5c-4.3 0-8.01 2.47-9.82 6.07l3.66 2.84c.87-2.6 3.3-4.53 6.16-4.53"/></svg>