<svg xmlns="http://www.w3.org/2000/svg" width="20" height="20" fill="none"><path stroke="#185580" stroke-linecap="round" stroke-linejoin="round" stroke-width="2" d="M7.919 3.548A1.67 1.67 0 0 0 6.37 2.5H4.08c-.872 0-1.579.707-1.579 1.579C2.5 11.49 8.509 17.5 15.921 17.5c.872 0 1.579-.707 1.579-1.579v-2.293c0-.681-.414-1.294-1.047-1.547l-2.197-.879a1.67 1.67 0 0 0-1.686.267l-.567.473a1.667 1.667 0 0 1-2.246-.101L8.16 10.243a1.666 1.666 0 0 1-.103-2.246l.473-.567c.392-.47.495-1.117.268-1.686z"/></svg>