<svg xmlns="http://www.w3.org/2000/svg" width="107" height="53" fill="none"><path fill="#fff" d="M95.506.815q4.518 0 6.922 1.622 2.403 1.594 2.403 4.981 0 2.115-.984 3.447-.956 1.303-2.78 2.056.608.753 1.274 1.738.666.956 1.303 2.027.666 1.043 1.274 2.201.609 1.13 1.13 2.23h-5.068q-.55-.985-1.13-1.998a33 33 0 0 0-1.158-1.97 36 36 0 0 0-1.159-1.795q-.579-.869-1.158-1.564h-2.23v7.327h-4.518V1.337a26 26 0 0 1 3.04-.406 40 40 0 0 1 2.84-.116m.26 3.852q-.492 0-.897.03-.376.028-.724.057V10.2h1.274q2.55 0 3.65-.637 1.1-.638 1.1-2.173 0-1.477-1.13-2.085-1.1-.636-3.272-.637M69.962 11.068q0 1.477.347 2.664.377 1.188 1.043 2.056.694.84 1.68 1.303.984.465 2.258.464 1.245 0 2.23-.463a4.5 4.5 0 0 0 1.68-1.304q.694-.868 1.043-2.056.376-1.187.376-2.664t-.376-2.665q-.348-1.215-1.043-2.056a4.4 4.4 0 0 0-1.68-1.332q-.985-.465-2.23-.464-1.274 0-2.259.493a4.7 4.7 0 0 0-1.68 1.332q-.666.84-1.042 2.056-.347 1.188-.347 2.636m15.32 0q0 2.577-.782 4.547-.753 1.94-2.085 3.272-1.333 1.303-3.186 1.97-1.825.666-3.939.666-2.056 0-3.88-.667a9 9 0 0 1-3.186-1.969q-1.362-1.332-2.143-3.273-.782-1.969-.782-4.546t.81-4.518q.811-1.97 2.173-3.302a9.2 9.2 0 0 1 3.185-1.998A11 11 0 0 1 75.29.584q2.057 0 3.881.666a8.8 8.8 0 0 1 3.186 1.998Q83.717 4.58 84.5 6.55q.782 1.94.782 4.518M61.236 14.369q0 1.477-.348 2.78a5.5 5.5 0 0 1-1.158 2.288q-.81.956-2.23 1.535-1.39.55-3.533.55-1.97 0-3.389-.463-1.419-.492-2.346-1.13l1.506-3.504q.84.492 1.796.869a5.6 5.6 0 0 0 2.085.377q1.65 0 2.375-.811.724-.811.724-2.723V1.047h4.518zM41.284 21.117a40 40 0 0 0-.724-2.143q-.376-1.101-.753-2.201h-7.819q-.377 1.1-.782 2.2a68 68 0 0 0-.695 2.144h-4.692a357 357 0 0 1 2.143-5.995 261 261 0 0 1 1.97-5.184 267 267 0 0 1 1.911-4.605 110 110 0 0 1 1.97-4.286h4.315q.984 2.085 1.94 4.286a125 125 0 0 1 1.912 4.605q.984 2.433 1.998 5.184 1.013 2.75 2.143 5.995zM35.87 5.594q-.145.434-.435 1.187l-.666 1.738q-.375.984-.84 2.172-.434 1.187-.897 2.49h5.705q-.464-1.302-.898-2.49-.435-1.188-.84-2.172-.376-.985-.666-1.738t-.463-1.187M6.605 1.047q.52.956 1.187 2.375.696 1.39 1.42 3.04.752 1.623 1.476 3.331.725 1.709 1.361 3.215l1.362-3.215q.723-1.71 1.448-3.33.753-1.651 1.419-3.041.695-1.42 1.216-2.375h4.113q.29 1.998.52 4.489.263 2.462.435 5.155.203 2.664.348 5.358.173 2.693.29 5.068h-4.403q-.087-2.925-.231-6.372a172 172 0 0 0-.435-6.95q-.52 1.216-1.158 2.693l-1.274 2.954q-.609 1.477-1.188 2.838-.579 1.333-.984 2.288H10.37q-.405-.956-.985-2.288-.58-1.36-1.216-2.838-.608-1.478-1.246-2.954L5.765 7.795a172 172 0 0 0-.434 6.95 521 521 0 0 0-.232 6.372H.697q.116-2.375.26-5.068l.348-5.358q.203-2.694.434-5.155.261-2.49.55-4.49zM101.361 44.275q1.695 0 2.596.608.901.596.901 1.868 0 .794-.369 1.292-.358.489-1.042.771.228.283.477.652.25.358.489.76.25.39.478.826.228.422.424.836h-1.901l-.424-.75q-.206-.38-.434-.738-.218-.358-.434-.673a7 7 0 0 0-.435-.587h-.836v2.748h-1.694V44.47q.554-.108 1.14-.152.597-.043 1.064-.043m.098 1.444q-.184 0-.337.011l-.271.022v2.042h.478q.955 0 1.368-.24.413-.238.413-.814 0-.555-.424-.782-.412-.24-1.227-.239M95.503 44.362h1.694v7.526h-1.694zM92.498 51.888q-.12-.39-.271-.803l-.283-.826h-2.932q-.141.412-.293.826a26 26 0 0 0-.26.803h-1.76q.423-1.215.803-2.248.38-1.032.739-1.944.369-.912.717-1.727.359-.825.738-1.607h1.618a56 56 0 0 1 1.445 3.334q.369.912.75 1.944.379 1.032.803 2.248zm-2.03-5.82q-.055.162-.164.444l-.25.652q-.14.37-.314.814-.163.446-.337.934h2.14q-.175-.488-.337-.934a22 22 0 0 0-.315-.814zM83.254 44.275q1.683 0 2.585.597.9.586.901 1.933 0 1.357-.912 1.966-.912.597-2.607.597h-.532v2.52h-1.694V44.47q.554-.108 1.173-.152.619-.043 1.086-.043m.108 1.444q-.184 0-.369.011l-.304.022v2.172h.532q.88 0 1.325-.239.445-.24.445-.89 0-.315-.119-.522a.8.8 0 0 0-.326-.326 1.3 1.3 0 0 0-.51-.173 4 4 0 0 0-.674-.055M74.192 51.888v-7.526h5.082v1.423h-3.388v1.477h3.008v1.39h-3.008v1.813h3.638v1.423zM68.935 44.275q1.695 0 2.596.608.9.596.901 1.868 0 .794-.37 1.292-.357.489-1.042.771.228.283.478.652.25.358.489.76.25.39.478.826.228.422.423.836h-1.9a92 92 0 0 0-.424-.75 12 12 0 0 0-.434-.738q-.218-.358-.435-.673a7 7 0 0 0-.434-.587h-.836v2.748H66.73V44.47q.555-.108 1.14-.152a15 15 0 0 1 1.065-.043m.098 1.444q-.185 0-.337.011l-.271.022v2.042h.478q.956 0 1.368-.24.413-.238.413-.814 0-.555-.424-.782-.413-.24-1.227-.239M57.101 51.888v-7.526h5.083v1.423h-3.389v1.477h3.008v1.39h-3.008v1.813h3.638v1.423zM53.273 52.04q-1.834 0-2.802-1.02-.955-1.022-.955-2.9 0-.934.293-1.662.293-.738.804-1.238.51-.51 1.216-.771.705-.26 1.531-.26.478 0 .87.075.39.066.683.163a3 3 0 0 1 .771.337l-.488 1.368a4 4 0 0 0-.815-.315 3.8 3.8 0 0 0-1.042-.13q-.392 0-.771.13a1.76 1.76 0 0 0-.663.424q-.282.282-.456.738-.174.457-.174 1.108 0 .522.109.977.12.445.369.772.26.325.673.52.412.186 1 .185.368 0 .662-.043t.521-.098q.228-.065.402-.14.173-.077.315-.142l.467 1.357q-.359.218-1.01.392a6 6 0 0 1-1.51.173M46.465 51.888a38 38 0 0 0-1.574-2.552 26 26 0 0 0-1.803-2.378v4.93h-1.673v-7.526h1.38q.358.358.792.88.435.52.88 1.118.456.586.901 1.227.445.63.837 1.217v-4.442h1.683v7.526zM38.41 51.888q-.12-.39-.271-.803l-.283-.826h-2.932q-.141.412-.293.826a26 26 0 0 0-.26.803h-1.76q.423-1.215.803-2.248.38-1.032.739-1.944.369-.912.717-1.727.358-.825.738-1.607h1.618a56 56 0 0 1 1.445 3.334q.369.912.75 1.944.378 1.032.803 2.248zm-2.03-5.82q-.055.162-.164.444l-.25.652-.314.814q-.163.446-.337.934h2.14q-.175-.488-.337-.934a22 22 0 0 0-.315-.814zM29.718 44.362h1.694v7.526h-1.694zM28.409 50.433v1.455h-5.028v-7.526h1.694v6.071zM18.433 44.275q1.683 0 2.585.597.901.586.901 1.933 0 1.357-.912 1.966-.912.597-2.606.597h-.532v2.52h-1.695V44.47q.554-.108 1.173-.152.62-.043 1.086-.043m.109 1.444q-.184 0-.37.011-.172.011-.303.022v2.172h.532q.88 0 1.325-.239.445-.24.445-.89 0-.315-.12-.522a.8.8 0 0 0-.325-.326 1.3 1.3 0 0 0-.51-.173 4 4 0 0 0-.674-.055M11.227 44.275q1.683 0 2.585.597.9.586.901 1.933 0 1.357-.912 1.966-.912.597-2.607.597h-.532v2.52H8.968V44.47q.554-.108 1.173-.152.62-.043 1.086-.043m.109 1.444q-.185 0-.37.011l-.304.022v2.172h.532q.88 0 1.325-.239.446-.24.446-.89 0-.315-.12-.522a.8.8 0 0 0-.326-.326 1.3 1.3 0 0 0-.51-.173 4 4 0 0 0-.673-.055M5.963 51.888q-.12-.39-.272-.803l-.282-.826H2.477q-.141.412-.294.826-.14.413-.26.803H.163q.424-1.215.804-2.248.38-1.032.739-1.944.37-.912.716-1.727.359-.825.739-1.607h1.618a56 56 0 0 1 1.444 3.334q.37.912.75 1.944t.804 2.248zm-2.031-5.82q-.054.162-.163.444l-.25.652q-.141.37-.315.814-.162.446-.336.934h2.14q-.175-.488-.338-.934a22 22 0 0 0-.314-.814zM0 31.374h38.011v3.017H0zM54.976 26.308l2.517-.406v2.619h3.024v2.094h-3.024v3.126q0 .794.27 1.267.288.473 1.133.473.405 0 .827-.068.44-.084.794-.22l.355 1.96q-.456.186-1.013.321-.558.136-1.369.136-1.03 0-1.706-.27-.675-.288-1.081-.778a3.05 3.05 0 0 1-.575-1.216 7.5 7.5 0 0 1-.152-1.571zM48.78 35.65q.372 0 .71-.017a5 5 0 0 0 .54-.05v-1.91a5 5 0 0 0-.455-.067 5 5 0 0 0-.558-.034 4.3 4.3 0 0 0-.675.05 1.6 1.6 0 0 0-.541.153.94.94 0 0 0-.372.32.9.9 0 0 0-.135.508q0 .591.389.827.405.22 1.098.22m-.202-7.366q1.115 0 1.858.254.744.252 1.183.726.456.473.642 1.149.186.675.186 1.503v5.238q-.54.117-1.504.27-.963.169-2.331.169-.862 0-1.571-.152a3.5 3.5 0 0 1-1.2-.49 2.35 2.35 0 0 1-.777-.913q-.27-.556-.27-1.368 0-.777.304-1.318.32-.54.845-.861a3.6 3.6 0 0 1 1.2-.456q.675-.152 1.401-.152.49 0 .862.05.388.034.625.102v-.237q0-.642-.389-1.03-.389-.39-1.351-.389a8 8 0 0 0-1.267.101 5 5 0 0 0-1.081.254l-.321-2.028q.219-.067.54-.135a6 6 0 0 1 .727-.135 9 9 0 0 1 .81-.101q.44-.05.879-.05M67.575 31.374h38.012v3.017H67.575z"/></svg>