<svg width="751" height="525" viewBox="0 0 751 525" fill="none" xmlns="http://www.w3.org/2000/svg">
<path d="M98.2003 334.876L100.279 340.983L102.467 338.839L109.313 340.548L108.698 343.396L114.819 346.286L119.217 345.489L127.714 350.22L135.785 351.937L138.979 353.726L144.724 351.93L151.107 355.834L155.758 357.616L155.548 402.474L155.251 467.559L160.684 467.877L166.117 470.884L170.116 475.651L175.347 482.736L180.592 476.361L186.025 472.499L189.336 478.027L193.443 482.272L199.036 486.814L203.296 494.32L210.446 506.085L221.335 511.815L222.291 518.523L219.48 524.044L215.684 520.407L209.983 517.538L207.403 508.352L199.029 500.282L195.124 490.263L189.539 489.93L180.36 490.147L173.507 487.249L161.553 476.064L156.185 473.984L146.499 469.913L138.791 470.638L128.178 465.023L121.991 459.858L115.768 461.741L116.268 469.536L113.146 469.985L106.502 471.681L101.2 474.868L94.7157 476.469V469.913L98.4973 459.394L104.633 456.627L103.46 453.671L95.8531 459.054L91.1804 465.921L82.0958 472.586L85.4355 478.469L78.9372 485.481L72.0622 489.024L65.7378 491.32L63.4703 495.805L53.3208 499.601L50.4809 504.201L42.6062 507.28L38.7014 505.592L32.4929 507.266L25.5962 509.381L19.7571 511.62L8.68033 511.866L8.21668 509.881L16.0335 506.802L22.6622 505.085L30.3485 500.912L37.9263 501.405L41.7731 497.725L51.1692 493.074L52.8861 491.205L57.8703 488.263L60.3914 480.316L64.4338 474.477L57.3487 476.527L55.907 474.318L52.0747 477.614L49.5609 471.398L47.2282 474.926L46.3154 469.123L39.7953 472.159L36.3832 471.347L37.4336 464.864L39.3679 461.162L36.8034 456.482L29.2619 456.764L26.0743 450.527L23.1475 446.955L24.821 440.855L22.1261 435.125L25.8932 429.467L31.725 424.526L35.043 419.368L39.2955 419.629L42.2729 422.281L47.6266 417.919L51.017 419.745L55.6028 417.144L55.8491 411.805L53.5816 409.146L58.1818 405.611L55.1826 405.061L49.4667 406.292L47.3731 408.407L44.1782 404.966L37.0207 404.409L30.7542 399.743L30.0877 394.665L26.1612 386.363L34.0722 383.617L45.8517 380.929L49.6116 381.922L47.4962 387.478L57.4139 389.47L55.3854 381.429L50.9156 375.612L49.2711 368.976L46.4095 362.854L41.5123 357.457L45.6996 352.017L53.357 353.733L60.1233 349.706L62.5937 344.106L68.2299 339.375L72.5548 338.911L81.4728 335.115L85.0443 336.694L92.5134 331.203L98.2003 334.876ZM2.18928 401.46L4.42782 404.568L7.81823 404.488L10.774 408.676L15.1496 411.704L14.3672 412.761L9.8974 413.848L6.94889 410.248L5.7608 407.654L1.26199 406.792L0.443359 405.43L2.18928 401.46ZM20.1411 452.997L16.3812 453.714L13.4544 450.701L11.1 446.847L16.8666 446.579L20.7931 448.752L20.1411 452.997ZM84.4285 497.609L77.9882 500.861L75.4092 497.645L75.286 492.48L81.1106 489.444L84.4141 488.234L88.1305 489.48L90.1444 493.153L84.4285 497.609Z" fill="#DFECF4" stroke="white" stroke-width="0.56"/>
<path d="M555.653 267.966L561.536 287.867L566.723 303.754L569.331 308.644L570.903 311.426L568.954 314.584L568.802 319.902L569.932 322.901V325.85L569.874 328.588L571.019 330.58L571.953 332.435L543.026 335.724L534.992 337.441L534.883 338.716L538.505 342.425L538.063 345.75L537.238 348.112L524.35 347.409L521.8 322.249L522.031 295.756L522.625 274.276L521.387 271.183L538.339 269.611L555.653 267.966Z" fill="#DFECF4" stroke="white" stroke-width="0.56"/>
<path d="M500.014 255.969L499.97 257.338L498.775 259.743L496.537 261.497L496.203 264.249L494.218 266.546L494.689 271.313L493.248 272.943L493.074 274.261L490.734 275.638L490.828 278.021L489.278 282.527L487.756 283.556L485.474 285.932L484.214 289.402L481.533 295.307L481.425 299.226L483.243 303.464L482.75 306.738L470.993 306.753L455.837 307.883L442.413 308.209L443.014 298.835H439.82L437.146 299.103L436.4 298.038L436.552 283.621L436.567 267.611L433.633 250.275L449.759 250.159L464.422 249.695L478.411 249.051L493.559 249.174L494.798 251.13L493.414 252.992L492.038 254.861L491.321 256.541L500.014 255.969Z" fill="#DFECF4" stroke="white" stroke-width="0.56"/>
<path d="M244.111 230.541L230.788 322.857L202.977 318.612L173.289 301.443L154.105 289.381L156.011 286.541L157.822 286.939L159.995 284.02L158.054 281.296L158.075 278.775L157.967 275.783L161.372 272.624L163.965 265.459L168.71 262.975L166.812 259.36L165.711 255.969L165.197 252.919L164.921 250.587L164.95 249.087L166.421 246.095L166.428 242.806L166.805 239.626L167.529 236.163L166.82 233.714L168.131 231.918L170.876 232.483L173.151 234.142L174.803 235.141L176.165 232.859L176.839 232.439L179.352 219.457L200.274 223.217L225.224 227.535L244.111 230.541Z" fill="#DFECF4" stroke="white" stroke-width="0.56"/>
<path d="M124.237 122.135L111.364 169.695L129.41 197.296L147.384 223.905L164.951 249.087L164.922 250.586L165.198 252.919L165.712 255.969L166.813 259.359L168.711 262.974L163.966 265.459L161.373 272.624L157.968 275.783L158.076 278.775L158.055 281.296L159.996 284.02L157.823 286.939L156.012 286.541L138.335 284.49L122.564 282.165L122.318 275.862L118.601 266.191L106.728 253.078L101.533 251.108L97.0997 244.581L87.0081 240.546L84.3639 237.054L85.1898 227.926L77.1991 208.46L73.135 183.437L74.6708 179.924L70.7515 173.063L65.2964 156.966L67.6509 143.665L63.9707 133.067L70.7588 120.925L74.649 107.37L124.237 122.135Z" fill="#619EC9" stroke="white" stroke-width="0.56"/>
<path d="M339.05 191.023L337.493 216.284L335.877 240.35L323.235 239.387L307.515 238.047L285.224 235.808L264.548 233.316L244.111 230.541L253.413 165.45L265.78 167.159L278.153 168.739L302.951 171.477L315.375 172.644L340.173 174.571L339.079 190.494L339.05 191.023Z" fill="#DFECF4" stroke="white" stroke-width="0.56"/>
<path d="M708.939 121.164L711.402 129.814L711.308 132.335L706.237 134.559L699.471 137.181L691.023 143.339L690.103 141.499L692.335 139.282L691.045 138.167L688.633 125.8L697.804 123.75L708.939 121.164Z" fill="#DFECF4" stroke="white" stroke-width="0.56"/>
<path d="M657.415 188.132L657.278 187.176L655.938 186.016L656.792 185.031L658.741 186.357L657.415 188.132Z" fill="#DFECF4" stroke="white" stroke-width="0.56"/>
<path d="M674.231 167.485L672.782 169.579L673.811 172.585L678.389 180.612L683.699 188.002L675.31 189.929L669.775 169.716L670.435 168.239L671.384 167.268L674.231 167.485Z" fill="#DFECF4" stroke="white" stroke-width="0.56"/>
<path d="M622.302 329.689L626.083 341.338L633.748 353.893L642.333 365.1L643.441 371.511L652.772 387.268L656.01 401.909L655.424 416.811L649.585 420.832L641.797 420.064L638.218 413.167L631.886 410.262L621.751 397.229L612.681 386.225L610.175 378.473L611.196 368.056L606.502 359.319L595.736 350.77L586.717 345.619L571.431 354.566L567.577 350.336L553.211 344.417L537.237 348.112L538.063 345.75L538.505 342.425L534.883 338.716L534.991 337.44L543.026 335.724L571.953 332.435L574.648 336.6L589.028 335.513L612.406 334.666L613.898 337.368L615.507 335.615L614.659 329.921L616.274 329.095L619.266 329.863L622.302 329.689Z" fill="#DFECF4" stroke="white" stroke-width="0.56"/>
<path d="M589.911 263.663L588.629 265.228L586.912 268.618L590.933 270.813L593.418 271.465L596.685 276.254L598.728 278.905L604.045 282.057L605.291 283.94L608.935 286.092L611.138 289.721L616.042 292.315L617.622 295.879L618.73 297.553L618.447 298.828L621.309 300.189L623.178 303.022L623.663 306.13L625.04 306.521L627.561 306.963L623.468 319.923L622.301 329.689L619.266 329.863L616.274 329.095L614.659 329.921L615.506 335.615L613.898 337.368L612.406 334.666L589.028 335.514L574.647 336.6L571.952 332.435L571.018 330.58L569.873 328.588L569.931 325.849V322.901L568.801 319.902L568.953 314.584L570.902 311.426L569.33 308.644L566.722 303.754L561.535 287.867L555.652 267.966L566.041 266.879L573.191 265.807L589.911 263.663Z" fill="#DFECF4" stroke="white" stroke-width="0.56"/>
<path d="M280.464 419.042L278.262 419.115L276.994 417.39L276.342 414.239L277.965 413.674L280.341 414.051L282.739 416.13L282.615 417.311L280.464 419.042ZM293.163 439.537L292.685 442.058L290.519 441.065L290.07 439.305L289.317 438.957L288.969 438.885L287.578 437.704L288.339 433.14L290.121 434.299L292.837 434.545L292.113 438.414L293.163 439.537ZM301.451 451.99L298.887 451.86L294.641 447.397L296.192 446.376L301.451 451.99ZM301.734 454.533L302.009 457.047L304.4 458.213L305.82 462.371L305.16 463.335L303.458 463.357L299.705 461.183L300.734 458.228L299.415 456.793L299.691 454.562L300.85 454.026L301.734 454.533ZM295.692 486.836L293.301 487.792L291.36 484.235L294.163 480.396L295.793 474.586L300.843 473.426L301.444 470.949L302.509 470.007L303.139 470.188L307.732 479.092L307.928 481.504L306.986 483.221L307.718 484.09L307.334 485.467L307.935 488.212L303.175 488.531L299.683 487.003L295.692 486.836Z" fill="#DFECF4" stroke="white" stroke-width="0.56"/>
<path d="M472.696 134.458L472.913 135.349L474.616 137.877L473.609 139.181L473.834 142.637L474.406 144.078L475.326 146.65L479.376 148.005L480.701 150.446L481.484 151.656L482.976 152.41L483.664 154.148L485.664 155.344L487.018 156.684L486.642 161.139L484.599 165L483.845 166.232L481.085 167.348L476.891 168.398L475.934 171.281L477.543 172.477L478.209 174.991L476.739 177.925L476.043 180.46L472.964 183.068L472.863 186.075L471.081 184.792L468.56 182.242L454.889 183.155L440.48 183.691L429.251 183.908L418 183.981L417.167 181.003L417.515 178.062L417.24 175.23L415.957 170.484L415.139 168.521L414.248 167.985L414.161 164.182L413.393 161.458L411.169 158.35L411.205 156.988L410.437 154.271L409.901 152.627L409.923 151.12L407.967 149.28L408.959 146.585L409.604 143.948L409.901 142.159L408.372 139.964L408.416 135.943H410.01L423.129 135.957L439.437 135.501L456.954 134.871L472.696 134.458Z" fill="#DFECF4" stroke="white" stroke-width="0.56"/>
<path d="M237.946 104.611L238.316 104.973L231.55 145.404L195.501 138.913L159.619 130.959L166.574 102.184L168.66 97.8588L168.218 95.5405L166.313 93.9467L166.951 91.3822L169.428 88.1149L172.645 85.5142L175.485 80.6894L177.977 76.8933L179.607 75.0532L179.563 72.4669L177.969 70.721L176.035 66.9973L176.803 64.1502L176.354 61.448L181.338 38.8453L186.17 18.1116L196.718 20.5168L193.762 37.8093L195.689 42.7645L195.037 45.6913L196.515 48.734L198.732 50.8276L200.043 53.7399L202.072 59.4196L204.462 62.3826L207.802 63.2302L205.832 66.5771L203.861 70.6268L203.948 74.9952L202.412 75.7704L201.673 79.9504L203.376 81.9716L206.02 80.501L207.643 78.4508L208.932 79.1753L209.852 81.6746L210.149 87.0645L211.787 89.4914L211.692 93.8743L212.163 95.1928L214.438 96.0476L215.416 98.6774L216.677 103.285L219.241 101.43L222.943 102.727L223.544 101.184L229.927 103.372L232.687 103.314L234.904 100.365L236.085 101.025L236.831 103.502L237.946 104.611Z" fill="#DFECF4" stroke="white" stroke-width="0.56"/>
<path d="M515.191 148.012V148.055L515.669 152.315L519.763 160.625L521.523 179.591L523.276 198.535L522.255 203.222L523.414 204.323L524.348 207.054L524.457 209.264L523.472 210.358L522.791 213.154L520.443 216.965L519.024 221.522L518.9 224.869L519.096 226.078L517.821 228.484L519.067 229.932L516.879 231.323L514.039 232.946L514.843 236.481L513.235 237.974L509.946 236.713L506.389 236.098L505.621 237.756L506.317 240.198L503.796 237.829L502.412 238.358L500.441 234.453L500.746 231.961L499.492 228.063L498.145 227.672L494.494 224.303L493.016 224.34L490.299 222.195L488.314 219.848L488.966 216.914L490.009 214.451L490.546 211.379L487.938 208.895L485.576 210.104L484.076 209.503L483.707 206.772L482.461 203.715L481.244 203.034L478.186 200.991L475.615 198.332L473.34 195.065L471.971 190.211L472.862 186.074L472.963 183.068L476.042 180.46L476.738 177.924L478.208 174.99L477.542 172.477L475.933 171.281L476.89 168.398L481.084 167.347L483.844 166.232L484.598 165L486.641 161.139L487.017 156.684L485.663 155.343L483.663 154.148L482.975 152.409L481.483 151.656L480.7 150.446L493.11 149.649L505.795 148.715L515.155 148.055L515.148 148.012H515.191Z" fill="#DFECF4" stroke="white" stroke-width="0.56"/>
<path d="M553.154 157.503L554.936 172.274L556.805 188.161L558.124 199.47L557.494 200.332L558.935 203.534L558.537 204.809L556.392 205.099L554.567 206.779L551.473 206.548L551.568 209.714L549.901 211.119L548.532 214.118L546.765 214.835L544.468 220.008L541.693 218.892L540.672 216.98L538.767 220.472L537.521 222.442L534.543 220.805L531.718 222.659L530.892 224.347L526.661 222.239L524.046 224.289L520.59 223.326L520.619 225.144L518.902 224.869L519.025 221.522L520.445 216.965L522.793 213.155L523.474 210.358L524.459 209.264L524.35 207.055L523.416 204.324L522.257 203.222L523.278 198.535L521.525 179.591L519.764 160.625L520.996 161.625L525.162 161.132L528.291 159.002L541.483 157.669L552.988 156.228L553.154 157.503Z" fill="#DFECF4" stroke="white" stroke-width="0.56"/>
<path d="M433.598 242.726L422.035 242.864L398.317 242.784L374.591 242.241L361.421 241.741L348.265 241.089L335.877 240.35L337.492 216.284L339.05 191.022H339.072L361.124 192.276L377.54 192.935L406.605 193.522H424.006L427.027 195.688L428.671 195.637L429.063 198.013L427.309 201.078L428.295 202.628L429.91 206.062L433.293 207.569L433.424 225.165L433.598 242.726Z" fill="#DFECF4" stroke="white" stroke-width="0.56"/>
<path d="M588.136 206.844L588.607 208.351L588.969 211.734L590.882 214.045L591.874 216.414L594.077 218.24L595.671 220.008L598.235 219.921L593.787 225.55L590.013 228.056L589.889 229.418L588.759 231.338L585.463 233.794L584.514 235.54L581.957 236.931L578.298 238.372L569.475 240.089L557.796 240.828L554.037 241.473L546.43 241.864L538.707 242.552L531.6 243.176L523.392 244.407L522.9 243.697L520.285 243.965L520.553 246.537L501.645 247.892L504.484 245.95L506.477 244.429L506.027 241.872L506.317 240.198L505.622 237.757L506.39 236.098L509.947 236.713L513.236 237.974L514.844 236.482L514.04 232.946L516.88 231.324L519.067 229.933L517.821 228.484L519.096 226.079L518.901 224.869L520.618 225.144L520.589 223.326L524.044 224.289L526.66 222.239L530.89 224.347L531.716 222.659L534.542 220.805L537.519 222.442L538.765 220.471L540.671 216.98L541.692 218.892L544.467 220.008L546.763 214.835L548.531 214.118L549.9 211.119L551.566 209.713L551.472 206.547L554.565 206.779L556.391 205.099L558.535 204.809L558.934 203.534L557.492 200.332L558.122 199.47L562.52 199.303L564.968 200.585L568.837 203.824L571.691 204.613L573.836 205.664L576.813 204.794L579.189 205.417L581.797 204.135L584.174 203.505L585.521 205.635L588.136 206.844Z" fill="#DFECF4" stroke="white" stroke-width="0.56"/>
<path d="M482.751 306.738L483.794 307.629L482.657 310.078L484.859 313.36L484.396 315.432L486.359 318.17L484.504 319.967L484.026 323.118L481.44 325.835L480.346 329.363L479.259 333.413L477.615 335.347L478.39 339.447L490.981 339.302L504.405 338.484L504.188 341.258L503.427 344.033L504.477 346.061L506.491 347.851L507.194 350.553L507.578 352.176L506.397 359.188L511.628 368.816L491.619 370.78L479.064 368.041L470.523 364.998L459.41 363.26L446.833 363.122L445.587 360.956L447 358.486L449.108 356.24L449.064 352.929L447.985 351.85L449.137 347.858L450.006 346.04L451.223 339.947L449.898 337.723L448.159 333.999L446.855 330.196L446.007 327.66L443.653 325.849L442.414 308.209L455.838 307.883L470.994 306.753L482.751 306.738Z" fill="#DFECF4" stroke="white" stroke-width="0.56"/>
<path d="M716.754 104.422L719.029 112.854L725.324 120.128L730.338 119.099L727.418 113.695L731.982 116.165L732.359 120.954L725.1 125.837L719.297 127.148L718.29 124.822L715.914 123.526L713.878 119.614L708.937 121.164L697.803 123.75L688.631 125.8L688.385 114.158L698.15 111.898L712.342 108.189L713.117 106.284L715.291 104.516L716.754 104.422Z" fill="#DFECF4" stroke="white" stroke-width="0.56"/>
<path d="M669.776 169.717L675.311 189.929L683.7 188.002L684.743 189.284L681.157 195.898L678.274 196.818L677.528 198.144L669.37 191.928L666.168 180.011L665.35 186.111L668.566 199.962L659.938 196.825L658.721 194.724L656.808 195.855L654.947 195.326L655.635 191.443L657.468 189.479L657.417 188.132L658.743 186.357L656.794 185.031L655.939 186.017L653.23 184.713L650.383 184.292L650.94 182.373L649.035 181.503L647.086 181.337L645.688 179.482L643.703 177.49L639.596 176.983L637.437 178.671L636.307 180.134L632.496 180.199L631.149 182.206L628.787 183.314L626.983 185.575L625.324 187.379L623.926 179.156L635.495 176.99L639.436 176.186L648.245 174.339L658.873 172.172L669.776 169.717Z" fill="#DFECF4" stroke="white" stroke-width="0.56"/>
<path d="M717.712 100.3L716.531 100.807L715.364 98.7496L712.561 97.0037L712.554 95.3158L702.926 66.8088L706.773 62.7229L708.642 54.3483L708.388 40.975L713.097 26.4788L717.965 29.5649L724.369 24.6169L730.621 27.6596L737.518 49.1974L747.653 55.7392L750 62.3679L740.684 70.8946L730.839 78.0304L720.704 91.411L717.712 100.3Z" fill="#DFECF4" stroke="white" stroke-width="0.56"/>
<path d="M546.279 77.4728L550.133 77.4946L548.902 79.3129L555.443 85.1157L545.547 87.9049L545.156 87.8759L535.927 87.2239L527.328 91.5126L519.641 93.8019L513.838 104.944L513.527 104.857L513.52 104.886L511.788 103.082L512.404 100.351L509.832 100.438L510.122 97.7139L510.709 96.3229L509.477 94.0989L506.659 93.2948L505.79 90.636L503.53 90.6143L500.277 90.8606L493.416 88.4047L483.173 86.1445L482.057 83.2249L480.231 82.7975L480.217 82.7468L479.529 83.1308L479.42 83.0511L479.521 83.1235L488.041 78.3277L496.734 72.2785L506.217 65.9541L503.356 75.0025L509.97 76.5455L518.584 82.0731L528.306 77.3424L539.288 74.6185L542.229 78.9434L545.787 79.1753L546.279 77.4728ZM579.278 132.06L579.01 132.321L574.677 142.115L572.837 148.201L569.548 155.076L564.963 155.851L559.399 156.582L553.154 157.495L552.988 156.22L541.483 157.662L528.291 158.995L530.537 156.474L534.637 147.976L533.804 137.138L528.755 127.423L528.617 120.404L530.834 112.022L533.152 106.183L537.368 101.72L539.093 107.103L540.194 98.7571L542.548 96.7793L543.403 90.339L553.603 92.3819L563.021 97.6125L565.013 104.915L564.992 112.522L559.406 119.954L560.565 123.99L562.941 123.808L569.266 115.593L573.866 116.593L577.409 125.736L579.01 132.328L579.278 132.06Z" fill="#DFECF4" stroke="white" stroke-width="0.56"/>
<path d="M486.953 58.7459L486.946 58.7532L475.89 64.9762L468.262 72.0613L460.902 79.4289L460.974 81.8631L458.004 82.9135L458.504 92.2009H458.142L455.36 94.1424L452.954 95.8231L451.411 98.9238L453.961 101.937L453.222 106.125L453.375 110.609L453.143 114.253L456.7 117.303L458.113 117.397L462.032 119.585L463.408 120.643L464.321 122.381L467.443 125.076L471.587 127.315L472.044 128.655L472.283 132.618L472.696 134.458L456.953 134.871L439.436 135.501L423.129 135.958L410.009 135.943L410.248 120.527L408.908 104.698L406.88 103.394L405.749 100.829L406.394 98.5905L409.002 96.7577L409.22 94.3525L409.241 91.3388L408.539 88.8177L407.597 86.1228L407.068 82.7469L406.959 78.9653L406.583 78.0525L406.162 73.1769L406.141 70.9384L405.938 68.9462L405.409 65.5702L404.083 62.1364L402.823 59.0719L402.671 56.0437L402.569 52.7765L402.975 50.6466L403.069 48.7051L402.069 46.2854L401.932 44.6409L424.701 44.7062L424.665 38.2803L428.367 38.1499L430.439 47.3069L433.923 50.0815L441.675 50.9364L453.07 53.2329L464.075 57.9418L472.971 55.2976L486.946 58.7459H486.953Z" fill="#DFECF4" stroke="white" stroke-width="0.56"/>
<path d="M472.862 186.074L471.971 190.211L473.341 195.065L475.615 198.332L478.187 200.991L481.244 203.034L482.461 203.715L483.707 206.772L484.077 209.503L485.576 210.104L487.938 208.894L490.546 211.379L490.01 214.451L488.967 216.914L488.315 219.848L490.3 222.195L493.017 224.34L494.494 224.303L498.146 227.672L499.493 228.063L500.746 231.961L500.442 234.453L502.413 238.358L503.796 237.829L506.317 240.198L506.028 241.871L506.477 244.429L504.485 245.95L501.645 247.891L501.413 249.5L500.768 251.898L500.015 255.969L491.321 256.541L492.039 254.861L493.415 252.992L494.799 251.13L493.56 249.174L478.412 249.051L464.423 249.695L449.76 250.159L433.634 250.275L433.663 242.726H433.597L433.424 225.166L433.293 207.569L429.91 206.062L428.294 202.628L427.309 201.078L429.062 198.013L428.671 195.637L427.027 195.688L424.006 193.522L422.339 190.023L420.376 187.929L418.254 185.335L418 183.981L429.251 183.908L440.48 183.691L454.889 183.155L468.559 182.242L471.08 184.792L472.862 186.074Z" fill="#DFECF4" stroke="white" stroke-width="0.56"/>
<path d="M521.386 271.183L522.625 274.276L522.031 295.756L521.799 322.249L524.349 347.409L515.859 351.835L507.578 352.176L507.194 350.553L506.492 347.851L504.478 346.061L503.427 344.033L504.188 341.258L504.405 338.484L490.981 339.302L478.39 339.447L477.615 335.347L479.26 333.413L480.346 329.363L481.44 325.835L484.027 323.118L484.505 319.967L486.359 318.17L484.396 315.432L484.86 313.36L482.657 310.078L483.795 307.629L482.752 306.738L483.244 303.464L481.426 299.226L481.534 295.307L484.215 289.402L485.475 285.932L487.757 283.556L489.279 282.527L490.829 278.021L490.735 275.638L493.075 274.261L493.249 272.943L506.55 272.016L521.386 271.183Z" fill="#DFECF4" stroke="white" stroke-width="0.56"/>
<path d="M322.808 91.2876L320.866 106.342L301.429 104.255L280.456 101.872L262.41 99.2276L239.59 95.7792L238.257 104.067L237.946 104.61L236.83 103.502L236.084 101.024L234.903 100.365L232.686 103.313L229.926 103.371L223.544 101.184L222.942 102.727L219.241 101.43L216.676 103.284L215.415 98.677L214.437 96.0472L212.163 95.1924L211.692 93.8739L211.786 89.491L210.149 87.0641L209.852 81.6742L208.932 79.1749L207.642 78.4504L206.019 80.5006L203.375 81.9712L201.673 79.95L202.412 75.77L203.947 74.9948L203.861 70.6264L205.831 66.5767L207.802 63.2298L204.462 62.3822L202.071 59.4192L200.043 53.7395L198.731 50.8272L196.515 48.7336L195.037 45.6909L195.689 42.7641L193.762 37.8089L196.717 20.5164L228.905 27.1595L261.302 32.7378L293.866 37.2511L326.56 40.6922L324.01 71.1552L322.808 91.2876Z" fill="#DFECF4" stroke="white" stroke-width="0.56"/>
<path d="M680.228 220.79L685.691 236.416L679.96 250.202L668.231 259.193L658.401 269.654L653.815 271.545L635.914 259.055L621.034 261.496L620.751 259.598L618.201 257.201L617.035 258.497L616.694 257.085L610.326 257.353L597.989 259.135L591.179 262.989L589.911 263.663L573.191 265.807L573.039 262.315L575.741 260.917L576.429 259.048L578.059 256.817L580.704 256.02L583.732 254.839L586.572 253.006L587.68 251.383L590.02 249.717L589.781 248.551L592.788 245.856L594.07 247.131L598.482 243.327L600.807 243.298L602.408 240.256L604.973 239.133L604.466 236.836L604.473 234.743L626.648 231.736L652.627 226.897L666.348 223.919L680.228 220.79Z" fill="#DFECF4" stroke="white" stroke-width="0.56"/>
<path d="M401.933 44.6409L402.07 46.2854L403.07 48.705L402.976 50.6465L402.57 52.7764L402.672 56.0437L402.824 59.0719L404.084 62.1363L405.41 65.5701L405.939 68.9461L406.142 70.9383L406.164 73.1768L406.584 78.0524L406.96 78.9652L407.069 82.7468L407.598 86.1227L408.54 88.8177L409.242 91.3387L409.221 94.3524L387.234 94.8958L368.471 94.1858L344.817 92.9325L322.809 91.288L324.011 71.1556L326.561 40.6926L364.544 43.4021L401.933 44.6409Z" fill="#DFECF4" stroke="white" stroke-width="0.56"/>
<path d="M409.901 152.627L410.437 154.271L411.205 156.988L411.169 158.35L413.393 161.458L414.161 164.182L414.248 167.985L415.139 168.521L415.957 170.484L417.24 175.229L417.515 178.062L417.167 181.003L418 183.981L418.254 185.335L420.376 187.929L422.34 190.023L424.006 193.522H406.605L377.54 192.935L361.124 192.276L339.072 191.022H339.05L339.079 190.494L340.173 174.57L315.375 172.643L318.186 139.913L341.73 141.745L359.842 142.818L384.074 143.774L387.146 145.94L391.572 147.36L392.63 146.628L395.513 146.744L399.846 146.65L402.953 148.809L406.271 150.214L406.815 151.591L407.858 152.388L409.901 152.627Z" fill="#DFECF4" stroke="white" stroke-width="0.56"/>
<path d="M717.711 100.3L716.754 104.422L715.291 104.516L713.118 106.284L712.342 108.189L698.151 111.898L696.774 110.493L697.151 108.182L696.325 103.93L696.419 102.836L695.811 98.9671L696.231 95.4462L696.803 93.8017L697.158 89.6579L696.731 87.0209L696.694 85.3692L698.694 84L700.744 81.4499L700.65 79.349L699.179 77.2988L699.31 72.5972L699.288 72.5899L699.324 68.3519L702.925 66.8088L712.553 95.3158L712.56 97.0038L715.363 98.7497L716.53 100.807L717.711 100.3Z" fill="#DFECF4" stroke="white" stroke-width="0.56"/>
<path d="M688.024 144.506L685.763 153.3L688.987 153.25L689.704 165.268L683.633 179.736L681.735 175.845L678.809 175.657L674.86 172.158L673.81 172.585L672.781 169.579L674.23 167.485L676.418 165.435L677.07 164.232L679.49 161.429L680.656 159.313L675.824 156.082L675.215 154.438L673.774 154.249L673.23 151.663L674.194 149.374L673.057 147.44L674.665 145.578L675.933 141.499L677.237 140.442L688.024 144.506Z" fill="#DFECF4" stroke="white" stroke-width="0.56"/>
<path d="M323.236 239.386L322.627 247.515L319.309 290.482L316.919 321.43L303.893 320.358L278.653 317.895L266.055 316.475L266.041 317.895L267.308 320.698L243.163 317.663L242.069 324.4L230.789 322.857L244.112 230.541L264.548 233.316L285.224 235.808L307.515 238.046L323.236 239.386Z" fill="#DFECF4" stroke="white" stroke-width="0.56"/>
<path d="M195.501 138.912L179.353 219.457L176.839 232.439L176.165 232.859L174.803 235.141L173.151 234.141L170.877 232.482L168.131 231.917L166.82 233.714L167.53 236.162L166.805 239.625L166.429 242.805L166.421 246.094L164.951 249.086L147.383 223.905L129.409 197.296L111.363 169.694L124.237 122.134L159.604 131.002L159.619 130.958L195.501 138.912Z" fill="#DFECF4" stroke="white" stroke-width="0.56"/>
<path d="M688.385 114.159L688.632 125.8L691.044 138.167L692.334 139.282L690.102 141.499L691.022 143.339L707.525 136.776L711.894 138.826L696.231 148.041L688.501 150.019L688.023 144.506L677.236 140.442L675.019 139.775L672.708 139.145L671.383 137L671.288 135.16L669.521 134.045L666.333 132.132L650.055 135.733L632.545 139.362L613.738 142.926L612.941 138.536L621.439 126.981L620.918 125.474L620.91 125.431L618.404 121.063L624.178 117.846L633.566 116.6L643.499 115.926L651.149 108.696L649.07 102.582L647.193 100.365L647.143 100.351L647.15 100.343L647.201 100.365L656.655 86.6876L661.124 82.5147L678.402 78.1536L678.997 81.4571L679.062 83.6376L680.547 88.3176L681.8 90.5996L681.481 94.2001L683.604 98.1121L683.452 100.619L683.821 101.169L685.517 100.865L688.385 114.159Z" fill="#DFECF4" stroke="white" stroke-width="0.56"/>
<path d="M608.348 166.572L606.776 167.673L607.653 169.644L607.71 173.476L607.145 177.91L606.522 181.612L606.595 183.314L603.798 187.581L602.473 188.61L600.85 189.342L599.271 189.226L596.902 192.464L596.851 195.47L596.706 197.115L595.677 197.934L595.236 196.151L593.461 196.021L592.215 199.817L592.562 203.447L591.244 205.953L588.136 206.844L585.521 205.634L584.173 203.505L581.797 204.135L579.189 205.417L576.813 204.794L573.835 205.663L571.691 204.613L568.837 203.823L564.968 200.585L562.519 199.303L558.122 199.469L556.804 188.161L554.935 172.274L553.152 157.502L559.397 156.589L564.961 155.858L569.547 155.075V155.083L577.566 157.379L583.789 157.307L592.302 153.764L598.778 148.099L604.646 144.861L608.348 166.572Z" fill="#DFECF4" stroke="white" stroke-width="0.56"/>
<path d="M433.634 250.275L436.568 267.611L436.554 283.621L436.401 298.038L430.432 294.894L426.563 293.184L423.448 294.321L418.616 294.169L415.755 294.198L413.4 295.538L411.096 296.219L409.082 295.401L404.482 296.263L402.425 293.496L400.251 295.85L396.513 294.734L392.71 292.112L388.552 293.677L386.842 289.67L380.452 289.895L376.403 288.888L371.853 287.562L369.948 284.078L366.318 285.041L364.152 283.607L360.979 281.702L361.675 266.01L362.377 249.92L349.12 249.261L335.863 248.464L322.627 247.515L323.235 239.387L335.877 240.35L348.265 241.089L361.421 241.741L374.592 242.241L398.317 242.784L422.036 242.864L433.598 242.726H433.663L433.634 250.275Z" fill="#DFECF4" stroke="white" stroke-width="0.56"/>
<path d="M176.036 66.997L177.97 70.7206L179.564 72.4666L179.607 75.0528L177.977 76.8929L175.485 80.689L172.645 85.5139L169.429 88.1146L166.951 91.3819L166.313 93.9464L168.219 95.5402L168.661 97.8584L166.574 102.183L159.62 130.958L159.605 131.002L124.238 122.135L74.6491 107.37L73.7363 97.3731L82.6615 81.6888L89.1308 64.2224L98.7008 41.0618L101.041 41.5616L104.366 42.6918L106.59 44.9593L109.51 46.8501L110.64 50.5013L110.125 53.247L110.277 55.7173L112.668 57.0938L115.421 57.8617L120.224 57.4488L122.897 57.6733L126.686 59.499L128.208 60.8319L130.707 60.9261L133.612 60.3466L138.596 61.9476L143.225 61.3028L145.754 60.5856L148.42 62.0418L152.868 61.4115L176.036 66.997Z" fill="#DFECF4" stroke="white" stroke-width="0.56"/>
<path d="M677.236 140.442L675.932 141.499L674.664 145.578L673.056 147.44L674.193 149.374L673.23 151.663L673.773 154.25L675.215 154.438L675.823 156.083L680.655 159.314L679.489 161.429L677.069 164.233L676.417 165.435L674.23 167.485L671.383 167.268L670.434 168.239L669.774 169.717L658.871 172.173L648.244 174.339L639.434 176.186L635.493 176.99L623.924 179.156L610.913 181.474L608.348 166.573L604.646 144.861L612.92 138.565L612.941 138.536L613.738 142.927L632.545 139.362L650.055 135.733L666.333 132.132L669.521 134.045L671.288 135.161L671.383 137.001L672.708 139.145L675.019 139.775L677.236 140.442Z" fill="#DFECF4" stroke="white" stroke-width="0.56"/>
<path d="M719.297 127.148L711.306 132.335L711.401 129.814L708.938 121.164L713.878 119.613L715.914 123.525L718.29 124.822L719.297 127.148Z" fill="#DFECF4" stroke="white" stroke-width="0.56"/>
<path d="M653.815 271.545L650.663 283.94L640.572 296.198L627.561 306.963L625.04 306.521L623.663 306.13L623.178 303.022L621.309 300.19L618.447 298.828L618.73 297.553L617.621 295.879L616.042 292.315L611.138 289.721L608.935 286.092L605.291 283.94L604.045 282.057L598.728 278.905L596.685 276.254L593.418 271.465L590.933 270.813L586.912 268.618L588.629 265.228L589.911 263.663L591.179 262.989L597.989 259.135L610.326 257.353L616.694 257.085L617.035 258.498L618.201 257.201L620.751 259.599L621.034 261.497L635.914 259.055L653.815 271.545Z" fill="#DFECF4" stroke="white" stroke-width="0.56"/>
<path d="M410.009 135.943H408.415L408.372 139.963L409.901 142.159L409.604 143.948L408.959 146.585L407.966 149.28L409.922 151.12L409.901 152.627L407.858 152.388L406.814 151.591L406.271 150.214L402.953 148.809L399.845 146.65L395.513 146.744L392.63 146.628L391.572 147.36L387.146 145.94L384.074 143.774L359.841 142.818L341.73 141.746L318.186 139.913L320.866 106.342L322.808 91.2878L344.816 92.9323L368.469 94.1856L387.233 94.8956L409.22 94.3523L409.002 96.7574L406.394 98.5903L405.75 100.829L406.88 103.393L408.908 104.697L410.248 120.527L410.009 135.943Z" fill="#DFECF4" stroke="white" stroke-width="0.56"/>
<path d="M578.3 238.373L597.882 236.098L604.474 234.743L604.467 236.837L604.974 239.133L602.41 240.256L600.809 243.299L598.483 243.328L594.071 247.131L592.789 245.856L589.783 248.551L590.022 249.717L587.682 251.384L586.573 253.006L583.733 254.839L580.705 256.02L578.061 256.817L576.431 259.048L575.743 260.917L573.041 262.316L573.193 265.807L566.042 266.88L555.654 267.966L538.34 269.611L521.388 271.183L506.551 272.016L493.25 272.943L494.692 271.313L494.221 266.546L496.206 264.25L496.539 261.497L498.778 259.744L499.973 257.339L500.016 255.969L500.77 251.898L501.415 249.5L501.646 247.892L520.554 246.537L520.286 243.965L522.902 243.697L523.394 244.407L531.602 243.176L538.709 242.553L546.432 241.864L554.038 241.473L557.798 240.829L569.476 240.09L578.3 238.373Z" fill="#DFECF4" stroke="white" stroke-width="0.56"/>
<path d="M436.402 298.038L437.148 299.103L439.821 298.835H443.016L442.415 308.21L443.654 325.85L446.008 327.661L446.856 330.197L448.16 334L449.899 337.724L451.224 339.948L450.007 346.04L449.138 347.859L447.986 351.85L449.065 352.93L449.109 356.24L447.001 358.486L445.588 360.957L446.834 363.123L434.504 366.846L421.319 379.307L406.678 386.479L398.521 394.368L394.993 401.837L394.674 413.385L395.304 421.448L398.108 427.207L392.167 427.62L381.46 423.701L369.804 418.152L365.855 410.132L363.008 398.302L354.648 388.42L350.019 378.423L343.289 366.658L333.451 359.45L321.606 358.979L311.471 371.396L299.8 365.419L292.759 359.74L290.035 350.307L286.13 341.223L278.429 333.102L271.771 327.118L267.309 320.699L266.041 317.895L266.055 316.476L278.654 317.895L303.893 320.359L316.919 321.431L319.31 290.482L322.628 247.515L335.863 248.464L349.121 249.261L362.378 249.921L361.675 266.011L360.98 281.702L364.153 283.607L366.319 285.042L369.948 284.078L371.854 287.563L376.403 288.889L380.453 289.896L386.843 289.671L388.552 293.677L392.711 292.112L396.514 294.735L400.252 295.851L402.425 293.496L404.483 296.263L409.083 295.401L411.097 296.22L413.401 295.539L415.755 294.199L418.617 294.17L423.449 294.322L426.564 293.185L430.433 294.894L436.402 298.038Z" fill="#DFECF4" stroke="white" stroke-width="0.56"/>
<path d="M253.414 165.45L244.112 230.541L225.226 227.535L200.276 223.217L179.354 219.457L195.501 138.913L231.55 145.404L228.855 161.19L253.414 165.45Z" fill="#DFECF4" stroke="white" stroke-width="0.56"/>
<path d="M647.085 181.337L649.027 181.511L650.939 182.373L650.374 184.292L653.221 184.713L655.938 186.017L657.271 187.176L657.408 188.132L657.459 189.479L655.634 191.443L654.945 195.326L656.807 195.847L658.72 194.717L659.937 196.825L669.883 204.084L674.042 211.213L674.295 211.648L680.236 220.783L666.355 223.912L652.642 226.89L626.656 231.729L604.48 234.743L597.888 236.098L578.299 238.372L581.965 236.924L584.522 235.533L585.464 233.779L588.76 231.331L589.897 229.411L590.02 228.049L593.795 225.542L598.236 219.906L599.243 222.572L600.931 223.811L603.111 224.804L606.885 222.188L608.631 223.072L613.239 220.913L613.275 219.414L614.833 219.74L616.231 218.283L618.071 218.204L619.904 216.596L619.926 215.067L619.368 213.234L620.614 210.126L622.715 207.576L622.918 205.077L624.584 201.81L625.163 198.071L627.076 199.013L629.177 199.817L630.886 198.854L631.22 197.267L632.089 195.029L633.06 192.471L634.103 192.971L635.574 190.53L637.631 187.944L638.877 186.038L639.022 181.554L646.288 184.64L647.085 181.337ZM675.592 209.945L676.903 210.322L681.163 195.898L678.273 196.818L677.526 198.137L675.592 209.945Z" fill="#DFECF4" stroke="white" stroke-width="0.56"/>
<path d="M698.151 111.898L688.385 114.158L685.516 100.865L683.821 101.169L683.452 100.618L683.604 98.1119L681.481 94.1999L681.8 90.5994L680.547 88.3174L679.062 83.6374L678.996 81.4568L678.402 78.1533L699.288 72.5896L699.31 72.5968L699.179 77.2985L700.65 79.3487L700.744 81.4496L698.694 83.9996L696.695 85.3688L696.731 87.0206L697.158 89.6576L696.803 93.8014L696.231 95.4459L695.811 98.9667L696.419 102.835L696.325 103.929L697.151 108.182L696.774 110.493L698.151 111.898Z" fill="#DFECF4" stroke="white" stroke-width="0.56"/>
<path d="M186.169 18.1112L181.337 38.8449L176.353 61.4477L176.802 64.1498L176.034 66.9969L152.866 61.4114L148.418 62.0417L145.752 60.5856L143.224 61.3028L138.595 61.9475L133.61 60.3465L130.705 60.926L128.206 60.8319L126.685 59.4989L122.896 57.6733L120.223 57.4487L115.419 57.8616L112.667 57.0937L110.276 55.7173L110.124 53.2469L110.638 50.5013L109.508 46.85L106.588 44.9592L104.364 42.6917L101.039 41.5616L98.6992 41.0617L99.9308 26.9712L103.068 11.1638L117.028 18.7342L118.006 32.6581L121.947 29.2532L124.142 15.6553L123.113 0.956299L154.496 10.0698L186.169 18.1112Z" fill="#DFECF4" stroke="white" stroke-width="0.56"/>
<path d="M479.419 83.0582L479.528 83.1378L480.209 82.7466L480.223 82.7973L482.056 83.232L483.172 86.1515L493.408 88.4046L500.276 90.8605L503.522 90.6214L505.782 90.6431L506.651 93.3018L509.477 94.106L510.708 96.33L510.121 97.721L509.832 100.445L512.403 100.358L511.788 103.089L513.519 104.893L513.526 104.864L513.838 104.951L513.744 105.118L509.694 111.471L511.462 113.275L519.054 101.865L520.8 101.633L515.953 114.883L514.345 126.583L512.918 136.08L515.149 143.984L515.192 148.012H515.149L515.156 148.056L505.796 148.715L493.111 149.649L480.702 150.446L479.376 148.005L475.326 146.65L474.406 144.078L473.834 142.637L473.609 139.181L474.616 137.877L472.914 135.349L472.696 134.458L472.283 132.618L472.044 128.655L471.588 127.315L467.444 125.076L464.322 122.381L463.409 120.642L462.033 119.585L458.113 117.397L456.701 117.303L453.144 114.253L453.375 110.609L453.223 106.125L453.962 101.937L451.412 98.9236L452.955 95.8229L455.36 94.1422L458.142 92.2007H458.504L458.005 82.9133L460.975 81.8628L472.211 77.8421L479.419 83.0582Z" fill="#DFECF4" stroke="white" stroke-width="0.56"/>
<path d="M623.924 179.156L625.323 187.379L626.982 185.575L628.785 183.314L631.147 182.206L632.495 180.199L636.305 180.134L637.435 178.671L639.594 176.983L643.702 177.49L645.687 179.482L647.085 181.337L646.295 184.647L639.029 181.561L638.884 186.046L637.638 187.951L635.581 190.537L634.11 192.979L633.067 192.479L632.089 195.029L631.22 197.275L630.886 198.854L629.184 199.817L627.076 199.013L625.163 198.071L624.584 201.81L622.917 205.077L622.715 207.576L620.621 210.126L619.368 213.234L619.911 215.096L619.889 216.625L618.064 218.233L616.224 218.313L614.825 219.769L613.268 219.435L613.232 220.935L608.624 223.094L606.878 222.203L603.104 224.818L600.93 223.826L599.235 222.587L598.236 219.921L595.671 220.008L594.077 218.24L591.875 216.414L590.882 214.046L588.97 211.735L588.608 208.351L588.137 206.844L591.245 205.953L592.563 203.447L592.215 199.817L593.461 196.021L595.236 196.152L595.678 197.934L596.707 197.115L596.852 195.471L596.903 192.464L599.271 189.226L600.851 189.342L602.474 188.61L603.799 187.581L606.596 183.314L606.523 181.612L607.146 177.91L607.711 173.476L607.653 169.644L606.777 167.674L608.349 166.572L610.913 181.474L623.924 179.156Z" fill="#DFECF4" stroke="white" stroke-width="0.56"/>
<path d="M320.866 106.342L318.185 139.913L315.374 172.643L302.95 171.477L278.152 168.739L265.779 167.159L253.412 165.45L228.854 161.19L231.548 145.404L238.315 104.973L237.945 104.611L238.257 104.067L239.59 95.7795L262.41 99.2279L280.456 101.872L301.429 104.256L320.866 106.342Z" fill="#DFECF4" stroke="white" stroke-width="0.56"/>
</svg>
