<svg xmlns="http://www.w3.org/2000/svg" width="1013" height="634" fill="none"><g clip-path="url(#a)"><path fill="#E7EEFD" d="M1013 459.006c0 1.447-.02 2.89-.05 4.315-.41 17.455-3.31 33.537-7.45 48.037a193 193 0 0 1-2.15 7.036c-.23.702-.45 1.4-.69 2.094-.96 2.867-1.97 5.666-3.007 8.391-.193.512-.386 1.012-.58 1.52-9.152 23.542-20.594 41.564-27.123 52.769-2.265 3.872-3.94 6.93-4.72 9.126-.325.88-.5 1.622-.507 2.221l-57.319-.336-733.289-4.311c-47.843-33.293-98.468-125.875-91.198-216.887 7.758-97.068 81.32-134.423 115.1-160.376 37.425-28.745 85.143-35.781 120.806-68.124 32.406-29.405 55.86-68.123 92.391-92.977C463.981 16.966 525.433-1.319 586.542.074c71.898 1.636 173.605 21.729 218.81 83.89 35.743 49.144 32.752 117.111 58.883 172.144 16.36 34.458 76.115 34.319 110.002 85.148a278 278 0 0 1 10.162 16.429v.007c4.527 7.943 8.43 15.746 11.767 23.414 11.254 25.862 16.064 50.098 16.754 72.321.05 1.878.08 3.734.08 5.583z"/><path fill="#6BAFE0" d="M292.554 609.19s126.098-180.718-216.73-343.857c0 0-24.381 390.78 216.73 343.857"/><path fill="#A9D8F9" d="m75.422 264.683 228.863 319.31c20.744-54.814 37.88-192.38-228.863-319.31"/><path fill="#62A2D0" d="M294.418 571.864a1.38 1.38 0 0 1-.912-.555L74.309 265.483a1.373 1.373 0 0 1 .314-1.911 1.367 1.367 0 0 1 1.908.311l219.197 305.829a1.374 1.374 0 0 1-.314 1.911 1.37 1.37 0 0 1-.996.241"/><path fill="#62A2D0" d="M189.655 425.691a.4.4 0 0 1-.092-.018l-102.05-22.128a1.37 1.37 0 0 1-1.046-1.622c.16-.745.912-1.22 1.627-1.049l102.049 22.129a1.37 1.37 0 0 1 1.047 1.629 1.36 1.36 0 0 1-1.532 1.063zM236.607 491.203a1.37 1.37 0 0 1-1.156-1.188L223.1 388.102a1.37 1.37 0 0 1 1.192-1.523 1.38 1.38 0 0 1 1.522 1.195l12.35 101.909a1.37 1.37 0 0 1-1.192 1.527 1.5 1.5 0 0 1-.362-.007z"/><path fill="#6BAFE0" d="M234.812 587.036S272.974 433.502 1.415 412.361c0 0 83.855 268.135 233.397 174.675"/><path fill="#A9D8F9" d="m.981 412.028 235.232 155.109c-.153-42.068-23.94-138.658-235.232-155.109"/><path fill="#A9D8F9" d="M226.492 561.547a1 1 0 0 1-.751-.135L.441 412.846a.98.98 0 0 1 1.076-1.64l225.3 148.562a.98.98 0 0 1 .277 1.359 1 1 0 0 1-.606.42z"/><path fill="#A9D8F9" d="M118.81 490.538c-.021.003-.043.011-.065.011l-74.058 11.42a.98.98 0 0 1-1.116-.818c-.084-.541.299-1.052.82-1.122l74.058-11.42a.983.983 0 0 1 .365 1.929zM167.072 522.362a.98.98 0 0 1-1.08-.497l-34.408-65.117a.98.98 0 1 1 1.733-.917l34.404 65.113a.99.99 0 0 1-.408 1.33q-.12.06-.244.088z"/><path fill="#6BAFE0" d="M810.177 582.477S735.354 443.132 993.299 355.5c0 0-15.174 280.568-183.122 226.977"/><path fill="#A9D8F9" d="m993.638 355.069-189.72 208.469c-10.221-40.804-10.976-140.287 189.72-208.469"/><path fill="#A9D8F9" d="M811.957 555.717c.256-.008.507-.117.697-.318l181.714-199.665a.983.983 0 0 0-1.452-1.326l-181.71 199.665a.983.983 0 0 0 .755 1.644z"/><path fill="#A9D8F9" d="M898.804 460.285c.022 0 .044 0 .065-.008l74.58-7.244a.983.983 0 0 0-.19-1.955l-74.579 7.245a.986.986 0 0 0-.883 1.074.98.98 0 0 0 1.003.888zM859.884 503.058a.98.98 0 0 0 .922-.749L878.1 430.7a.98.98 0 0 0-.722-1.184.99.99 0 0 0-1.182.724l-17.294 71.605a.986.986 0 0 0 .985 1.213z"/><path fill="#6BAFE0" d="M851.833 593.243s-28.739-99.75 148.817-120.205c0 0-48.5 177.862-148.817 120.205"/><path fill="#A9D8F9" d="M1000.93 472.808 850.433 580.227c-.919-27.59 12.343-91.505 150.497-107.419"/><path fill="#62A2D0" d="M856.67 576.325a.64.64 0 0 0 .489-.11L1001.3 473.331c.29-.209.36-.61.15-.899a.645.645 0 0 0-.9-.153L856.411 575.163a.645.645 0 0 0 .259 1.158z"/><path fill="#62A2D0" d="M925.566 527.151s.03.004.044.004l48.838 5.692a.645.645 0 1 0 .15-1.279l-48.838-5.692a.645.645 0 0 0-.194 1.275M894.689 549.188a.644.644 0 0 0 .697-.354l20.985-43.533a.644.644 0 0 0-.299-.859.65.65 0 0 0-.861.3l-20.985 43.533a.65.65 0 0 0 .299.862c.055.022.106.04.164.051"/><path fill="#A9D8F9" d="M976.21 596.919c0 20.316-193.266 36.788-431.678 36.788-45.727 0-89.783-.606-131.143-1.731-51.935-1.407-99.595-3.628-140.922-6.496-97.388-6.74-159.613-17.031-159.613-28.558 0-11.526 68.345-22.811 173.879-29.518 37.938-2.412 80.681-4.304 126.784-5.554 41.32-1.121 85.336-1.728 131.015-1.728 238.412 0 431.678 16.477 431.678 36.8z"/><path fill="#FF9391" d="M316.603 311.204s-4.676 14.759-5.676 19.344c-.999 4.585-5.365 8.29-3.06 9.729s7.554-5.904 7.554-5.904 2.116 6.284 2.433 9.236 2.94 3.543 3.622 1.746c.77-2.038.755-4.91.755-4.91s.018 5.893 2.039 6.262c2.017.369 3.279-9.309 3.279-9.309s.186 6.467 1.273 7.256 3.732 1.512 3.787-3.193c.058-4.706.018-5.491.018-5.491s.777 5.874 1.463 6.806c.685.928 3.37-1.151 2.717-8.132-.653-6.978-4.749-17.73-9.692-24.372l-10.512.928z"/><path fill="#F5F9FC" d="M664.882 578.119H421.855a.493.493 0 0 1-.492-.494V290.102c0-.274.222-.493.492-.493h243.027a.49.49 0 0 1 .492.493v287.523a.493.493 0 0 1-.492.494"/><path fill="#619EC9" d="M452.597 315.522c0-4.782 3.87-8.658 8.645-8.658s8.645 3.876 8.645 8.658-3.87 8.658-8.645 8.658-8.645-3.876-8.645-8.658M489.591 315.522c0-4.782 3.871-8.658 8.645-8.658 4.775 0 8.645 3.876 8.645 8.658s-3.87 8.658-8.645 8.658-8.645-3.876-8.645-8.658M528.464 315.522c0-4.782 3.87-8.658 8.645-8.658s8.645 3.876 8.645 8.658-3.87 8.658-8.645 8.658-8.645-3.876-8.645-8.658M565.995 315.522c0-4.782 3.87-8.658 8.644-8.658 4.775 0 8.645 3.876 8.645 8.658s-3.87 8.658-8.645 8.658-8.644-3.876-8.644-8.658"/><path fill="#164876" d="M606.607 329.01h44.771v-25.372h-44.771zM543.259 541.308c51.59 0 93.412-41.887 93.412-93.558 0-51.67-41.822-93.558-93.412-93.558s-93.412 41.888-93.412 93.558 41.822 93.558 93.412 93.558"/><path fill="#619EC9" d="M443.143 447.75c0-55.289 44.909-100.272 100.116-100.272s100.116 44.979 100.116 100.272-44.913 100.273-100.116 100.273-100.116-44.98-100.116-100.273m13.405 0c0 47.888 38.898 86.847 86.711 86.847s86.711-38.959 86.711-86.847-38.898-86.846-86.711-86.846-86.711 38.959-86.711 86.846"/><path fill="#619EC9" d="M485.889 480.305h-29.341v-61.621h29.341c.668 0 1.211.545 1.211 1.213v59.195c0 .668-.543 1.213-1.211 1.213"/><path fill="#FF9391" d="M480.994 366.212s14.08-6.39 18.512-7.924c4.428-1.535 7.583-6.313 9.283-4.191 1.7 2.123-4.965 8.209-4.965 8.209s9.444 1.33 12.406 1.297c2.966-.032 3.312 1.604 1.609 2.492-1.93 1.008-7.193 2.269-7.193 2.269s5.843-.676 6.449 1.289c.605 1.966-8.842 4.359-8.842 4.359s6.434-.578 7.342.409c.909.986 1.941 3.533-2.717 4.143s-5.442.665-5.442.665 3.461.299 4.464.873c1.003.573 1.707 3.266-5.285 3.441-6.996.176-17.72-1.534-24.888-5.666l-.737-11.661z"/><path fill="#FF9391" d="M405.897 344.402s18.767 25.24 30.023 26.848c11.26 1.611 49.327-5.371 49.327-5.371L489 377.157s-45.237 22.421-70.369 13.426c-25.133-8.994-31.501-28.459-31.501-28.459zM419.211 570.849l4.847-29.932h-22.776l-1.046 31.576s13.985 2.794 18.978-1.641z"/><path fill="#121212" d="M400.268 568.905s7.205 3.54 18.943 1.944c0 0 32.759 14.803 31.486 24.784 0 0 1.433 3.01-13.737 2.06s-38.749-2.101-39.376-2.466c-.624-.365-6.322-4.406 2.681-26.322z"/><path fill="#fff" d="M397.584 595.227c.623.365 24.205 1.516 39.376 2.466s13.737-2.06 13.737-2.06c.084-.658.011-1.341-.183-2.035l-55.268-4.823c.091 4.903 1.995 6.251 2.341 6.456z"/><path fill="#FF9391" d="m255.819 555.625 25.592 5.25-2.196-21.843-30.582-2.101s1.364 15.417 7.186 18.691z"/><path fill="#121212" d="M251.452 537.063s-.984 7.979 4.367 18.566c0 0-3.247 35.846-13.077 37.91 0 0-2.371 2.342-6.438-12.326s-10.699-37.359-10.56-38.071c.139-.709 2.086-7.424 25.712-6.079z"/><path fill="#fff" d="M225.741 543.138c-.139.709 6.492 23.403 10.559 38.071 4.068 14.668 6.438 12.327 6.438 12.327.65-.136 1.266-.428 1.861-.841l-13.537-53.886c-4.596 1.688-5.245 3.935-5.321 4.329"/><path fill="#FD798D" d="M295.713 345.742s-16.889 34.637-15.816 87.263l28.418-33.438s21.448-35.836 21.448-39.058 1.609-27.301 0-30.03-8.043-10.248-8.043-10.248l-26.003 25.508z"/><path fill="#FD798D" d="M368.363 295.802s24.129 16.914 30.158 25.774c6.033 8.859 16.488 28.594 20.106 31.816l-25.132 28.193-13.07-14.095-83.238-17.316-16.086 13.692s-30.564-24.568-29.758-25.171 42.389-45.948 54.288-49.74c17.694-5.637 62.732 6.847 62.732 6.847"/><path fill="#619EC9" d="m382.038 354.605-14.744 74.645s64.34 7.518 70.775 26.848c6.434 19.333-9.116 107.4-9.116 107.4h-32.704l6.347-78.959-56.746-9.645s24.129 76.793 17.158 88.604c-6.971 11.815-99.726 0-99.726 0v-27.385l48.254-3.759s-37.53-66.589-34.849-97.734 40.434-93.656 40.434-93.656l64.92 13.645z"/><path fill="#417FAB" d="m373.484 360.535-51.005-14.336-11.267 40.208 22.188 18.994 28.816-4.658z"/><path fill="#FF9391" d="M276.464 360.118s-13.186 16.235-13.186 21.471c0 5.235 28.951 30.476 45.037 33.698l-3.217 10.741s-67.557-11.545-69.702-44.436c0 0-3.166-13.93 19.329-39.521l21.739 18.051z"/><path fill="#9CC0E9" d="m338.789 417.632-5.445-5.77-33.282 31.501 5.444 5.77z"/><path fill="#9CC0E9" d="m350.515 404.809-9.043 8.56-3.961-4.198 8.959-8.479c-3.535-1.882-8.018-1.41-11.089 1.494-3.852 3.646-4.023 9.725-.383 13.583a9.58 9.58 0 0 0 13.562.384c3.166-3 3.841-7.643 1.955-11.344M295.067 457.293l9.043-8.56-3.958-4.198-8.958 8.48c-1.678-3.643-.956-8.096 2.119-11.004 3.848-3.646 9.921-3.475 13.562.383s3.469 9.937-.383 13.583c-3.166 3-7.835 3.409-11.421 1.316z"/><path fill="#F56A6A" d="M391.952 258.826s2.582-2.597 3.903-1.066c3.37 3.909-1.419 7.105-4.257 7.463z"/><path fill="#FF9391" d="M395.045 247.95h-.025q.115-.465.215-.942c2.805-14.04-6.767-27.685-21.175-29.596-12-1.592-23.582 5.908-27.043 17.525a24.9 24.9 0 0 0-.441 12.67c1.116 6.167 2.13 11.457 3.425 15.943 2.141 7.42 1.703 15.348-1.047 22.563l-2.163 5.674c13.394 10.996 21.718 4.932 21.718 4.932l2.429-10.727a2.763 2.763 0 0 1 3.097-2.115c18.833 2.51 19.34-27.542 21.014-35.927z"/><path fill="#01011C" d="M367.352 255.739a2.315 2.315 0 1 0-4.541-.909 2.32 2.32 0 0 0 1.817 2.729 2.314 2.314 0 0 0 2.724-1.82M388.341 255.739a2.316 2.316 0 1 0-4.542-.909 2.315 2.315 0 1 0 4.542.909M359.926 250.563a1.36 1.36 0 0 1-.646-.326 1.363 1.363 0 0 1-.091-1.921c1.521-1.673 5.599-3.898 10.177-.336a1.36 1.36 0 0 1 .237 1.907 1.356 1.356 0 0 1-1.904.237c-3.757-2.93-6.391-.102-6.5.018a1.36 1.36 0 0 1-1.273.417zM381.928 251.275a1.37 1.37 0 0 1-.645-.325 1.364 1.364 0 0 1-.092-1.922c1.522-1.673 5.603-3.898 10.177-.336a1.36 1.36 0 0 1 .237 1.907 1.356 1.356 0 0 1-1.904.238c-3.757-2.927-6.39-.103-6.5.018-.332.365-.82.508-1.273.416z"/><path fill="#121212" d="m343.927 238.481 3.316 17.854h4.614l6.92-20.788z"/><path fill="#FF9391" d="M352.649 255.948a3.7 3.7 0 0 0-1.554-2.105c-1.55-1.019-4.37-2.356-6.821-.719-3.597 2.4.842 11.562 7.591 8.804 0 0 2.042-1.363.784-5.98"/><path fill="#F56A6A" d="M377.376 266.316c-2.396.632-4.1-.936-4.118-.954a.404.404 0 0 1 .551-.588c.08.073 1.984 1.79 4.541.252.416-.252.653-.475.7-.665.066-.27-.189-.683-.54-1.26-.809-1.323-2.166-3.537-1.863-7.859a.404.404 0 1 1 .806.055c-.285 4.066.937 6.061 1.743 7.384.438.712.784 1.275.639 1.874-.103.424-.435.785-1.069 1.165a5.4 5.4 0 0 1-1.39.599z"/><path fill="#fff" d="M367.385 268.625s9.035 2.995 15.451 1.435c0 0-2.881 6.843-8.378 6.331s-7.073-7.766-7.073-7.766"/><path fill="#164876" d="M393.021 237.677s3.013 3.168.912 18.172c0 0 3.37-16.429 1.9-18.617-1.474-2.189-2.809.445-2.809.445z"/><path fill="#FF564F" d="M395.512 234.349s-2.367-21.346-28.01-21.025c-25.647.318-23.575 25.157-23.575 25.157s18.063-3.503 21.7-3.756 29.885-.372 29.885-.372z"/><path fill="#FD798D" d="M356.471 236s30.571-12.395 47.806-4.026-8.229 9.846-8.229 9.846-1.193-7.752-39.577-5.82"/><path fill="#FF9391" d="M299.04 412.16s15.436.851 20.072 1.541c4.637.691 9.641-2.089 10.166.581.529 2.671-8.189 4.98-8.189 4.98s7.759 5.553 10.403 6.893c2.645 1.345 2.196 2.956.278 2.956-2.174 0-7.427-1.319-7.427-1.319s5.493 2.108 5.125 4.128-9.852-.226-9.852-.226 5.971 2.466 6.321 3.763.091 4.029-4.322 2.415c-4.414-1.615-5.133-1.929-5.133-1.929s2.933 1.866 3.557 2.842c.624.972.007 3.686-6.278.603s-15.006-9.565-19.456-16.543l4.727-10.682z"/><path fill="#619EC9" d="M381.822 355.687s4.907-32.456 4.37-46.273l-6.58-5.276s-2.389 34.294-7.762 49.521l9.972 2.024zM317.117 340.96s9.261-35.284 5.825-53.309l9.977.953s.66 37.005-6.778 58.351l-9.024-5.991z"/><path fill="#17527D" d="M515.493 241.703a2.23 2.23 0 0 1-2.232-2.236V212.02h-47.525v25.811a2.232 2.232 0 1 1-4.465 0v-28.05c0-1.239 1-2.236 2.233-2.236h51.993a2.23 2.23 0 0 1 2.232 2.236v29.683a2.23 2.23 0 0 1-2.232 2.236z"/><path fill="#FD798D" d="M439.67 234.433h99.839V288.9a.624.624 0 0 1-.624.625h-98.588a.624.624 0 0 1-.623-.625v-54.467z"/><path fill="#DD4E6F" d="M543.088 232.168H436.092v11.322h106.996z"/><path fill="#DD4E6F" d="M507.706 240.472h-36.418v7.022h36.418z"/><path fill="#121212" d="M779.33 124.753c.434 6.554-2.098 13.287-.278 19.597 2.411 8.359 11.523 12.998 15.39 20.787 4.052 8.158 1.922 18.873 7.652 25.95 2.039 2.517 4.874 4.267 7.04 6.671 5.001 5.549 5.596 14.587 1.368 20.747-4.709 6.861-13.795 9.261-22.105 9.213-8.309-.047-16.556-2.013-24.858-1.618-8.444.402-16.703 3.233-25.15 2.955-11.695-.383-22.645-6.86-30.243-15.775-7.594-8.914-12.143-20.074-15.046-31.425-1.106-4.33-1.996-8.732-2.24-13.189-.956-17.368 7.831-33.767 17.99-47.873 4.636-6.441 9.882-12.849 17.064-16.213 16.308-7.64 51.909-2.492 53.412 20.177z"/><path fill="#FF9391" d="M698.155 559.275s2.969 29.376-3.016 32.708c-10.845 6.035-30.845 11.789-29.17 16.973 1.674 5.181 49.615 5.385 50.946.658 1.331-4.724-4.042-19.184 1.652-47.332l-20.412-3.004z"/><path fill="#121212" d="M716.434 599.059c.51 5.261.952 8.867.477 10.551-1.331 4.724-49.272 4.523-50.946-.657-1.244-3.844 9.345-8.176 19.391-12.491 2.374 3.997 7.441 10.226 31.074 2.597z"/><path fill="#FF9391" d="M788.073 558.431s7.922 28.437 2.586 32.745c-9.659 7.796-28.39 16.878-25.858 21.697 2.531 4.822 49.805-3.157 50.312-8.041s-7.245-18.216-6.42-46.923l-20.624.518z"/><path fill="#121212" d="M812.848 594.518c1.397 5.097 2.447 8.575 2.265 10.314-.507 4.884-47.781 12.859-50.312 8.041-1.879-3.577 7.817-9.652 16.983-15.615 3.021 3.533 9.072 8.805 31.064-2.74"/><path fill="#FF9391" d="M679.826 222.545s-10.071 13.507-18.464 13.507-36.925-35.723-36.925-35.723l-6.715 10.822s23.917 52.216 45.737 52.637 38.183-23.955 37.764-25.216c-.419-1.26-14.266-16.03-14.266-16.03h-7.135z"/><path fill="#82BFE9" d="M703.743 298.881s-13.022 15.801-18.894 34.29c-5.877 18.493 9.71 237.579 9.71 237.579h26.018s13.803-195.105 13.803-196.841c0-6.813 51.231 196.841 51.231 196.841h25.974s-14.057-238.459-46.682-271.869l-30.527 1.893z"/><path fill="#17527D" d="M703.744 290.683v8.195s15.524 15.128 61.156 0l.105-8.195-40.072-2.521z"/><path fill="#F5F9FC" d="M719.257 191.843s-16.17-.599-24.377 5.074c-5.869 4.059-18.829 26.951-18.829 26.951l14.878 12.666s-3.549 13.809 10.309 20.743l2.509 33.414s26.015 15.128 61.262 0c0 0 6.715-62.618 13.007-57.157 6.296 5.462 10.072 10.295 10.072 10.295l23.498-23.322s-25.618-25.705-34.095-29.735c-19.89-9.454-35.969-.358-35.969-.358l-22.261 1.432z"/><path fill="#FF9391" d="M790.283 241.641s13.643 15.947 12.067 20.36c-1.572 4.413-25.658 40.749-28.878 47.639-3.221 6.89-2.277 10.986-2.277 10.986l12.275 5.988s.638-9.726 3.308-12.586c2.67-2.861 43.268-44.779 42.323-58.018-.944-13.24-19.576-33.468-19.576-33.468zM712.159 140.58s-1.78-3.497-3.63-2.368c-4.713 2.875-.54 7.888 2.236 9.181l1.39-6.813z"/><path fill="#FF9391" d="M743.929 104.255c13.157 2.382 22.605 14.467 21.791 27.834a26.6 26.6 0 0 1-3.651 11.961c-4.702 8.808-8.565 15.899-12.934 20.883-4.429 5.052-6.927 11.507-6.738 18.226l.19 6.784c-16.272 5.948-22.626 1.856-22.626 1.856l2.261-19.805c-16.421-3.894-10.691-34.41-9.655-43.507l.026.007c.025-.343.051-.686.091-1.03 1.736-15.223 15.947-25.979 31.245-23.209"/><path fill="#121212" d="M742.956 131.293c4.023 6.039 8.353 12.005 11.11 18.701.307.734 2.433 6.255 1.58 6.766 4.665-2.776 7.97-7.336 10.844-11.95 4.979-7.993 4.968-18.277.948-26.662-3.972-8.289-11.657-13.239-20.536-14.997-9.524-1.885-20.379.146-27.171 7.508-6.376 6.912-7.715 16.418-9.367 25.292 1.857-9.959 16.192-15.907 24.673-18.53-.248.077 5.019 9.364 5.303 9.82a157 157 0 0 0 2.619 4.052z"/><path fill="#FF9391" d="M753.151 150.549c.525-.807 1.346-1.377 2.272-1.633 1.911-.529 5.223-.964 7.186 1.506 2.878 3.627-4.644 11.508-10.615 6.477 0 0-1.634-2.061 1.157-6.353z"/><path fill="#121212" d="M716.51 141.332a2.325 2.325 0 1 1 4.647.08 2.324 2.324 0 1 1-4.647-.08M738.024 146.275a2.325 2.325 0 1 1 4.647.08 2.325 2.325 0 1 1-4.647-.08"/><path fill="#FD798D" d="M718.834 157.648s3.06-2.21 4.235-1.841c1.174.369 1.78 1.826 1.78 1.826s.755-1.41 2.199-1.384c1.445.025 4.436 4.022 4.436 4.022s-4.315 6.236-8.663 5.294c-4.429-.961-3.943-7.588-3.943-7.588l-.044-.326z"/><path fill="#121212" d="M745.29 143.608a.97.97 0 0 0 .832-1.618c-.11-.117-2.74-2.872-7.051-3.23a.965.965 0 0 0-1.043.884c-.044.534.393 1.012.882 1.045 3.59.303 5.774 2.598 5.796 2.62a.96.96 0 0 0 .584.299M723.116 136.758a.967.967 0 0 0 .427-1.768c-.135-.088-3.301-2.148-7.613-1.469a.967.967 0 0 0-.806 1.107c.08.53.595.892 1.102.808 3.563-.563 6.223 1.154 6.252 1.172a.97.97 0 0 0 .638.154z"/><path fill="#F56A6A" d="M726.629 153.896c-2.681-.727-3.356-2.886-3.305-4.081a.81.81 0 0 1 .248-.552c2.79-2.71 3.038-7.12 3.042-7.164a.812.812 0 1 1 1.623.077c-.011.201-.255 4.822-3.268 7.99.088.657.58 2.159 3.188 2.327a.814.814 0 0 1-.106 1.626 7 7 0 0 1-1.422-.227z"/><path fill="#F9F9FB" d="m718.834 157.648 12.65 2.623s-4.735 3.113-8.167 2.597c-3.433-.515-4.483-5.217-4.483-5.217z"/><path fill="#FF9391" d="M777.944 302.483s-10.655 14.975-9.572 18.457c1.083 3.478 5.65 13.276 6.004 15s.139 10.997 1.08 12.436 3.21-9.944 3.21-9.944-.573 9.985 1.163 10.613c1.737.625 3.28-10.028 3.28-10.028s-.905 10.101.798 10.159c1.704.059 2.714-9.743 2.714-9.743s-.591 7.855.759 7.873 4.355-12.831 1.711-17.35c-6.245-10.667-4.41-16.377-4.41-16.377l-6.737-11.088z"/><path fill="#FF9391" d="M771.086 313.272s-5.293 8.899-5.358 12.289c-.066 3.391-1.04 10.274.412 10.255s3.428-9.546 4.475-9.951c1.047-.402 1.066-4.713 1.066-4.713l-.591-7.88z"/><path fill="#6E9AF4" d="M743.816 252.667c11.8 0 16.721-11.815 16.768-11.935a.437.437 0 1 0-.809-.329c-.048.113-4.753 11.387-15.959 11.387s-15.579-8.191-15.619-8.271a.434.434 0 0 0-.587-.19.44.44 0 0 0-.19.588c.044.088 4.625 8.746 16.4 8.746zM690.929 236.969a.44.44 0 0 0 .434-.388c.011-.08 1.022-7.975 7.121-13.718a.437.437 0 0 0-.599-.636c-6.336 5.97-7.35 13.92-7.39 14.252a.437.437 0 0 0 .383.486h.051z"/><path fill="#619EC9" d="M717.583 301.289c0-4.253 3.454-7.709 7.696-7.709s7.696 3.46 7.696 7.709-3.454 7.708-7.696 7.708-7.696-3.459-7.696-7.708m3.498 0a4.21 4.21 0 0 0 4.202 4.208 4.21 4.21 0 0 0 4.202-4.208 4.21 4.21 0 0 0-4.202-4.209 4.21 4.21 0 0 0-4.202 4.209"/><path fill="#FF9391" d="M626.914 203.369s-9.568-14.383-11.552-15.676c-1.985-1.294-11.239-2.298-11.239-2.298l-5.19 12.622 19.741 13.689z"/><path fill="#FF9391" d="M621.03 195.584s-1.554-9.426-3.305-12.82c-1.021-1.972-.386-7.909-2.031-7.825-3.032.153-3.706 8.688-2.014 14.189 1.696 5.502 7.35 6.459 7.35 6.459z"/><path fill="#FF7E7E" d="M598.812 198.605s8.835 4.866 9.918 3.248-9.327-7.906-9.327-7.906 11.279 6.558 12.187 5.221-9.52-8.808-9.52-8.808 10.136 7.178 10.972 6.079c.835-1.1-9.367-10.149-9.367-10.149s7.729 7.917 9.742 6.81-7.973-10.518-10.111-11.256c-2.137-.735-2.24 2.838-2.24 2.838s-1.769 1.115-1.59 2.594c0 0-2.841 2.788-2.032 4.49s-2.728 3.347 1.372 6.835z"/><path fill="#6BAFE0" d="M609.095 60.762h-85.986c-22.338 0-40.444 18.135-40.444 40.508H649.54c0-22.373-18.107-40.508-40.445-40.508"/><path fill="#6BAFE0" d="M565.338 73.87h-3.83V.595l3.83-.219z"/></g><defs><clipPath id="a"><path fill="#fff" d="M0 0h1013v633.707H0z"/></clipPath></defs></svg>