<svg xmlns="http://www.w3.org/2000/svg" width="1530" height="693" fill="none"><path stroke="#619EC9" stroke-opacity=".07" stroke-width="2" d="M1207.85-498H-16.482L-378-313.469V534H859.78l348.07-222.382z"/><path stroke="#619EC9" stroke-opacity=".07" stroke-width="2" d="M785.849-865H-438.482L-800-680.469V167H437.78L785.849-55.382z"/><path stroke="#619EC9" stroke-opacity=".07" stroke-width="2" d="M1314.85-407H90.518L-271-222.469V625H966.78l348.07-222.382z"/><path stroke="#619EC9" stroke-opacity=".07" stroke-width="2" d="M892.849-774H-331.482L-693-589.469V258H544.78L892.849 35.618z"/><path stroke="#619EC9" stroke-opacity=".07" stroke-width="2" d="M1421.85-316H197.517L-164-131.469V716h1237.78l348.07-222.382z"/><path stroke="#619EC9" stroke-opacity=".07" stroke-width="2" d="M999.849-683H-224.482L-586-498.469V349H651.78l348.069-222.382z"/><path stroke="#619EC9" stroke-opacity=".07" stroke-width="2" d="M1528.85-225H304.517L-57-40.47V807h1237.78l348.07-222.382z"/><path stroke="#619EC9" stroke-opacity=".07" stroke-width="2" d="M1106.85-592H-117.482L-479-407.469V440H758.78l348.07-222.382z"/></svg>