<svg xmlns="http://www.w3.org/2000/svg" width="60" height="60" fill="none"><path fill="#fff" d="M0 0h60v60H0z"/><path fill="#185580" d="M32.603 59.61c-.294 0-.596-.056-.883-.164a2.43 2.43 0 0 1-1.57-2.282V49.89a19.8 19.8 0 0 1-9.52-19.77c.08-.578.619-.981 1.189-.902.578.08.981.615.901 1.192a18 18 0 0 0-.167 2.453c0 6.446 3.51 12.38 9.164 15.49.334.184.544.54.544.922v7.889c0 .189.117.275.215.312s.24.051.367-.087l5.879-6.526c.21-.228.498-.356.825-.345.24.008.458.017.676.017 4.927 0 9.501-1.98 12.877-5.573 3.375-3.59 5.065-8.288 4.756-13.23-.549-8.844-7.917-16.102-16.78-16.517a18 18 0 0 0-2.677.072 1.054 1.054 0 0 1-1.156-.945 1.06 1.06 0 0 1 .941-1.155 20 20 0 0 1 2.994-.08c9.92.469 18.168 8.593 18.782 18.499.345 5.526-1.548 10.784-5.323 14.8a19.85 19.85 0 0 1-14.414 6.237q-.132 0-.262-.003L34.41 58.8c-.476.527-1.13.81-1.806.81"/><path fill="#185580" d="M2.445 2.498a.333.333 0 0 0-.334.333v20.457c0 .182.15.335.334.335h23.251c.749 0 1.45.338 1.915.926l4.564 5.78c.12.156.269.147.37.11a.314.314 0 0 0 .226-.317V2.832a.336.336 0 0 0-.335-.334zm29.977 30.074c-.73 0-1.428-.33-1.904-.934l-4.56-5.78a.34.34 0 0 0-.262-.128H2.446A2.45 2.45 0 0 1 0 23.288V2.831A2.445 2.445 0 0 1 2.445.39h29.991a2.444 2.444 0 0 1 2.442 2.441v27.291a2.41 2.41 0 0 1-1.642 2.308 2.4 2.4 0 0 1-.814.142"/></svg>