<svg xmlns="http://www.w3.org/2000/svg" width="60" height="60" fill="none"><path fill="#fff" d="M0 0h60v60H0z"/><path fill="#185580" d="M38.623 45.148H34.59a1.02 1.02 0 1 1 0-2.039h4.032c.298 0 .575-.112.782-.323.214-.214.333-.494.333-.79 0-.617-.501-1.115-1.115-1.115h-8.299a1.018 1.018 0 0 1 0-2.035h8.299a3.153 3.153 0 0 1 3.15 3.15c0 .84-.33 1.633-.926 2.226a3.1 3.1 0 0 1-2.224.926"/><path fill="#185580" d="M25.422 54.416c-.26 0-.523-.099-.72-.299l-6.845-6.842a1.023 1.023 0 0 1 0-1.442l4.856-4.86a7.22 7.22 0 0 1 5.137-2.127h2.474a1.018 1.018 0 0 1 0 2.035H27.85a5.2 5.2 0 0 0-3.695 1.53l-4.137 4.141 5.404 5.407 1.39-1.39a4.98 4.98 0 0 1 3.554-1.473h8.323c.699 0 1.355-.274 1.846-.765L51.51 37.355a.89.89 0 0 0 .007-1.27c-.158-.158-.365-.256-.65-.32-.754-.165-1.596.113-2.2.716l-8.414 8.415c-.19.193-.449.298-.719.298h-4.898a1.018 1.018 0 0 1 0-2.035h4.477l8.116-8.116c1.102-1.106 2.621-1.58 4.067-1.267.667.144 1.225.435 1.653.863a2.9 2.9 0 0 1 .866 2.077c0 .783-.308 1.52-.863 2.078L41.973 49.77a4.61 4.61 0 0 1-3.284 1.361h-8.323c-.8 0-1.55.312-2.116.877l-2.109 2.11c-.2.2-.46.297-.72.297M7.2 59.061a1.02 1.02 0 0 1-.716-1.74l7.853-7.825a1.019 1.019 0 0 1 1.439 1.442l-7.857 7.825c-.196.2-.46.298-.72.298M32.998 12.778q-.054-.001-.102.004a5.4 5.4 0 0 0-3.821 1.663 5.43 5.43 0 0 0-1.527 3.881 5.456 5.456 0 0 0 5.446 5.348h.098a5.42 5.42 0 0 0 3.825-1.667 5.4 5.4 0 0 0 1.523-3.878 5.41 5.41 0 0 0-1.663-3.824 5.42 5.42 0 0 0-3.78-1.527m-.004 12.93c-4.063 0-7.407-3.266-7.48-7.343a7.44 7.44 0 0 1 2.094-5.33 7.43 7.43 0 0 1 5.25-2.292 7.4 7.4 0 0 1 5.33 2.098 7.43 7.43 0 0 1 2.29 5.25c.074 4.126-3.22 7.54-7.347 7.618zm-6.909 2.06c.193 0 .386.053.558.165a11.5 11.5 0 0 0 3.502 1.537c.403.102.705.439.758.853l.46 3.397 2.887-.053.313-3.19c.042-.442.368-.807.803-.898 1.26-.26 2.46-.726 3.565-1.386.358-.214.807-.19 1.14.063l2.724 2.078 2.003-2.078-2.031-2.474a1.02 1.02 0 0 1-.064-1.203 11.6 11.6 0 0 0 1.537-3.506 1.02 1.02 0 0 1 .853-.758l3.393-.456-.052-2.888-3.187-.312a1.01 1.01 0 0 1-.898-.807c-.26-1.25-.726-2.45-1.39-3.561-.214-.358-.189-.811.064-1.14l2.08-2.724-2.077-2.003-2.477 2.031c-.344.281-.832.306-1.204.063a11.6 11.6 0 0 0-3.502-1.54 1.01 1.01 0 0 1-.758-.85l-.46-3.392-2.887.052-.312 3.186a1.01 1.01 0 0 1-.807.899c-1.257.26-2.457.726-3.559 1.386-.357.214-.807.19-1.14-.063l-2.727-2.078-2.003 2.078 2.032 2.477c.284.344.308.832.066 1.204a11.4 11.4 0 0 0-1.537 3.501 1.02 1.02 0 0 1-.852.758l-3.397.46.053 2.888 3.186.312c.442.042.807.369.898.804.263 1.263.73 2.46 1.39 3.561.214.358.19.81-.064 1.14l-2.077 2.724 2.077 2.003L25.44 28c.186-.154.414-.231.646-.231m4.39 8.005c-.51 0-.94-.38-1.008-.885l-.49-3.628a13.5 13.5 0 0 1-2.808-1.228l-2.61 2.147c-.4.327-.983.306-1.355-.056l-3.383-3.26a1.017 1.017 0 0 1-.101-1.35l2.22-2.913c-.48-.905-.855-1.86-1.119-2.85l-3.368-.33a1.013 1.013 0 0 1-.916-.992l-.088-4.702c-.007-.52.372-.958.885-1.028l3.628-.488c.302-.979.712-1.92 1.224-2.807L19.04 8.789c-.326-.4-.305-.983.056-1.355l3.26-3.382a1.02 1.02 0 0 1 1.35-.102l2.917 2.22c.905-.48 1.86-.855 2.85-1.118l.329-3.366c.049-.512.477-.908.993-.915l4.702-.088c.526-.007.961.372 1.028.884l.488 3.628c.986.302 1.923.713 2.807 1.225l2.614-2.147c.4-.327.983-.306 1.355.056l3.382 3.26c.372.361.414.94.102 1.35l-2.225 2.913c.485.912.857 1.867 1.12 2.853l3.365.33c.516.049.912.477.92.993l.087 4.698c.007.52-.372.962-.884 1.028l-3.629.488a13.6 13.6 0 0 1-1.224 2.81l2.147 2.611c.327.4.305.983-.056 1.355L43.63 32.4a1.016 1.016 0 0 1-1.348.102l-2.912-2.221c-.909.48-1.863.856-2.853 1.12l-.33 3.364c-.049.516-.477.913-.996.92l-4.699.087z"/><path fill="#185580" d="m14.98 48.548 8.308 8.313 2.078-2.077-8.31-8.31zm8.308 10.77c-.27 0-.53-.106-.719-.299l-9.751-9.751a1.02 1.02 0 0 1 0-1.439l3.52-3.512a1.02 1.02 0 0 1 1.434-.004l9.755 9.748c.397.4.397 1.042 0 1.442l-3.52 3.516c-.189.193-.448.298-.719.298"/></svg>