<svg xmlns="http://www.w3.org/2000/svg" width="60" height="60" fill="none"><path fill="#fff" d="M0 0h60v60H0z"/><path fill="#185580" d="M4.594 57.34h38.683V10.79h-9.994v2.687c0 .56-.456 1.017-1.017 1.017H15.608a1.017 1.017 0 0 1-1.014-1.017V10.79h-10zm39.696 2.032H3.58a1.02 1.02 0 0 1-1.017-1.018V9.772c0-.558.456-1.014 1.017-1.014h12.028c.561 0 1.017.456 1.017 1.014v2.691H31.25v-2.69c0-.559.456-1.015 1.017-1.015H44.29c.562 0 1.017.456 1.017 1.014v48.582c0 .562-.456 1.018-1.017 1.018"/><path fill="#185580" d="M16.626 12.464h14.623V6.03h-3.676c-.537 0-.982-.422-1.014-.961a2.544 2.544 0 0 0-2.532-2.41h-.263a2.544 2.544 0 0 0-2.536 2.41c-.029.54-.474.961-1.014.961h-3.588zm15.64 2.03H15.608a1.017 1.017 0 0 1-1.014-1.016V5.013c0-.558.457-1.015 1.014-1.015h3.747a4.57 4.57 0 0 1 4.409-3.37h.263a4.57 4.57 0 0 1 4.405 3.37h3.834c.562 0 1.017.457 1.017 1.015v8.465c0 .56-.456 1.016-1.017 1.016M40.351 21.257H8.505a1.017 1.017 0 0 1 0-2.032H40.35c.561 0 1.017.457 1.017 1.014 0 .562-.456 1.018-1.017 1.018M40.351 27.143H8.505a1.014 1.014 0 0 1 0-2.031H40.35a1.015 1.015 0 1 1 0 2.03M20.034 33.033H8.504a1.017 1.017 0 0 1 0-2.032h11.53a1.015 1.015 0 0 1 0 2.032M53.526 10.793a1.88 1.88 0 0 0-1.876 1.878v33.413c0 1.362.203 2.716.613 4.02l1.263 4.052 1.266-4.051c.407-1.302.614-2.656.614-4.02V12.67a1.88 1.88 0 0 0-1.88-1.878m0 47.264a1.23 1.23 0 0 1-1.178-.867l-2.024-6.483a15.4 15.4 0 0 1-.705-4.623V12.671a3.916 3.916 0 0 1 3.907-3.912 3.917 3.917 0 0 1 3.911 3.912v33.413c0 1.569-.238 3.126-.705 4.623l-2.024 6.483c-.161.519-.638.867-1.182.867"/><path fill="#185580" d="M56.42 19.62h-5.788a1.015 1.015 0 0 1 0-2.03h5.788a1.015 1.015 0 1 1 0 2.03M56.052 49.311h-5.038a1.014 1.014 0 0 1-1.013-1.017c0-.561.452-1.014 1.014-1.014h5.036a1.014 1.014 0 0 1 0 2.031M31.309 52.906c-5.034 0-9.131-4.097-9.131-9.13s4.097-9.13 9.13-9.13c1.347 0 2.645.288 3.859.852.508.238.726.842.487 1.351a1.014 1.014 0 0 1-1.346.49 7.1 7.1 0 0 0-3-.663c-3.914 0-7.1 3.186-7.1 7.1 0 3.915 3.186 7.1 7.1 7.1 3.915 0 7.1-3.185 7.1-7.1a1.015 1.015 0 1 1 2.031 0c0 5.033-4.097 9.13-9.13 9.13"/><path fill="#185580" d="M31.61 48.546c-.309 0-.604-.14-.793-.378l-3.606-4.507a1.015 1.015 0 1 1 1.586-1.27l2.802 3.504 7.174-9.204a1.01 1.01 0 0 1 1.424-.175c.442.343.522.981.175 1.424L32.41 48.157c-.19.246-.484.39-.793.39z"/></svg>