<svg xmlns="http://www.w3.org/2000/svg" width="32" height="32" fill="none"><g clip-path="url(#a)"><mask id="b" width="46" height="46" x="-7" y="-7" maskUnits="userSpaceOnUse" style="mask-type:luminance"><path fill="#fff" d="M-6.4-6.4h44.8v44.8H-6.4z"/></mask><g mask="url(#b)"><path fill="#619EC9" d="M32 16c0-8.837-7.163-16-16-16S0 7.163 0 16c0 7.504 5.166 13.8 12.135 15.529v-10.64h-3.3V16h3.3v-2.107c0-5.446 2.464-7.97 7.81-7.97 1.014 0 2.764.199 3.48.398v4.432c-.379-.04-1.035-.06-1.85-.06-2.623 0-3.637.994-3.637 3.578V16h5.227l-.898 4.89h-4.329v10.993C25.861 30.926 32 24.18 32 16"/><path fill="#fff" d="m22.267 20.89.898-4.89h-5.227v-1.73c0-2.583 1.014-3.577 3.638-3.577.814 0 1.47.02 1.848.06V6.32c-.715-.2-2.465-.398-3.478-.398-5.347 0-7.811 2.524-7.811 7.97V16h-3.3v4.89h3.3v10.639a16 16 0 0 0 5.803.354V20.889z"/></g></g><defs><clipPath id="a"><path fill="#fff" d="M0 0h32v32H0z"/></clipPath></defs></svg>