<svg xmlns="http://www.w3.org/2000/svg" width="32" height="32" fill="none"><g clip-path="url(#a)"><circle cx="16" cy="16" r="16" fill="#619EC9"/><g fill="#fff" fill-rule="evenodd" clip-path="url(#b)" clip-rule="evenodd"><path d="M16 6c-2.716 0-3.056.011-4.123.06-1.064.049-1.792.218-2.428.465A4.9 4.9 0 0 0 7.678 7.68a4.9 4.9 0 0 0-1.153 1.77c-.246.636-.416 1.364-.465 2.429C6.012 12.944 6 13.283 6 16s.011 3.056.06 4.123c.049 1.064.218 1.792.465 2.428.251.666.644 1.271 1.154 1.771.5.509 1.103.902 1.77 1.153.636.247 1.364.416 2.428.465 1.067.049 1.407.06 4.123.06s3.056-.011 4.123-.06c1.064-.049 1.792-.218 2.428-.465a4.9 4.9 0 0 0 1.771-1.154c.509-.5.902-1.103 1.153-1.77.247-.636.416-1.364.465-2.428.049-1.067.06-1.407.06-4.123s-.011-3.056-.06-4.123c-.049-1.064-.218-1.792-.465-2.428a4.9 4.9 0 0 0-1.154-1.771 4.9 4.9 0 0 0-1.77-1.153c-.636-.246-1.364-.416-2.429-.465C19.056 6.012 18.717 6 16 6m0 1.802c2.67 0 2.987.01 4.041.058.975.045 1.504.207 1.857.345.467.18.8.398 1.15.747.35.35.567.683.747 1.15.138.353.3.882.345 1.857.048 1.054.058 1.371.058 4.041s-.01 2.987-.058 4.041c-.045.975-.207 1.504-.345 1.857-.16.434-.415.827-.747 1.15a3.1 3.1 0 0 1-1.15.747c-.353.138-.882.3-1.857.345-1.054.048-1.37.058-4.041.058-2.67 0-2.987-.01-4.041-.058-.975-.045-1.504-.207-1.857-.345a3.1 3.1 0 0 1-1.15-.747 3.1 3.1 0 0 1-.747-1.15c-.138-.353-.3-.882-.345-1.857-.048-1.054-.058-1.371-.058-4.041s.01-2.987.058-4.041c.045-.975.207-1.504.345-1.857.18-.467.398-.8.747-1.15a3.1 3.1 0 0 1 1.15-.747c.353-.138.882-.3 1.857-.345 1.054-.048 1.371-.058 4.041-.058"/><path d="M16 19.336a3.337 3.337 0 1 1 0-6.674 3.337 3.337 0 0 1 0 6.674m0-8.476a5.14 5.14 0 1 0-.001 10.28 5.14 5.14 0 0 0 0-10.28m6.634-.094a1.215 1.215 0 1 1-2.43 0 1.215 1.215 0 0 1 2.43 0"/></g></g><defs><clipPath id="a"><path fill="#fff" d="M0 0h32v32H0z"/></clipPath><clipPath id="b"><path fill="#fff" d="M2.667 2.667h26.667v26.667H2.667z"/></clipPath></defs></svg>