<svg xmlns="http://www.w3.org/2000/svg" width="32" height="32" fill="none"><g clip-path="url(#a)"><circle cx="16" cy="16" r="16" fill="#619EC9"/><path fill="#fff" d="M22.226 11.161c.863.714 3.231 2.672 2.845 4.047-.178.617-.887.815-1.413 1.007a26 26 0 0 1-3.718 1.042c-1.023.207-3.207.66-2.802-1.148.159-.699.723-1.292 1.177-1.818.93-1.095 1.88-2.252 3.004-3.15a.39.39 0 0 1 .3-.076.57.57 0 0 1 .607.096M20.953 25.59c-.758-.612-1.293-1.572-1.756-2.41-.453-.811-1.167-1.882-1.287-2.822-.246-1.934 2.555-.772 3.36-.492 1.072.376 3.941.791 3.623 2.464-.265 1.365-1.91 3.029-3.284 3.241-.015.005-.034 0-.054 0l-.014.015c-.038.019-.082.043-.125.062-.164.087-.323.053-.463-.058M14.688 20.613c1.524-.631 1.664 1.071 1.654 2.103a59 59 0 0 1-.144 3.69c-.034.496-.015 1.094-.488 1.408-.583.386-1.707.082-2.31-.106a.3.3 0 0 0-.057-.024c-1.269-.222-2.817-.806-2.966-1.978a.45.45 0 0 1 .12-.347q.057-.108.12-.203c.189-.26.406-.491.623-.728q.55-.817 1.181-1.577c.608-.733 1.356-1.861 2.267-2.238M14.91 15.328C12.687 13.5 10.52 10.669 9.402 8.05c-.853-1.992 1.317-3.207 2.99-3.757 2.257-.743 3.154-.097 3.381 2.16a57 57 0 0 1 .26 5.855c-.004.825.227 2.156-.255 2.898.077.304-.381.521-.642.314-.038-.029-.077-.068-.12-.101a.5.5 0 0 1-.106-.092M14.669 18.159c.178.79-.381 1.11-1.037 1.408a26 26 0 0 1-3.622 1.293c-.714.197-1.808.67-2.498.144-.52-.395-.555-1.22-.603-1.818-.106-1.336.097-4.523 1.949-4.658.906-.063 2.04.747 2.782 1.172.989.569 2.05 1.22 2.788 2.112.11.062.202.173.24.347"/></g><defs><clipPath id="a"><path fill="#fff" d="M0 0h32v32H0z"/></clipPath></defs></svg>