<svg width="45" height="44" viewBox="0 0 45 44" fill="none" xmlns="http://www.w3.org/2000/svg">
<mask id="path-1-inside-1_2205_4806" fill="white">
<path d="M36.9999 37C36.9999 39.2091 35.2091 41 32.9999 41L10.9999 41C8.7908 41 6.99994 39.2091 6.99994 37L6.99994 16C6.99994 15.4477 7.44766 15 7.99994 15L35.9999 15C36.5522 15 36.9999 15.4477 36.9999 16L36.9999 37Z"/>
</mask>
<path d="M36.9999 37C36.9999 39.2091 35.2091 41 32.9999 41L10.9999 41C8.7908 41 6.99994 39.2091 6.99994 37L6.99994 16C6.99994 15.4477 7.44766 15 7.99994 15L35.9999 15C36.5522 15 36.9999 15.4477 36.9999 16L36.9999 37Z" stroke="#185580" stroke-width="3.2" mask="url(#path-1-inside-1_2205_4806)"/>
<mask id="path-2-inside-2_2205_4806" fill="white">
<path d="M6.99994 7C6.99994 4.79086 8.7908 3 10.9999 3H32.9999C35.2091 3 36.9999 4.79086 36.9999 7V12C36.9999 12.5523 36.5522 13 35.9999 13H7.99994C7.44766 13 6.99994 12.5523 6.99994 12V7Z"/>
</mask>
<path d="M6.99994 7C6.99994 4.79086 8.7908 3 10.9999 3H32.9999C35.2091 3 36.9999 4.79086 36.9999 7V12C36.9999 12.5523 36.5522 13 35.9999 13H7.99994C7.44766 13 6.99994 12.5523 6.99994 12V7Z" stroke="#185580" stroke-width="3.2" mask="url(#path-2-inside-2_2205_4806)"/>
<mask id="path-3-inside-3_2205_4806" fill="white">
<rect x="11.9999" y="20" width="20" height="16" rx="1"/>
</mask>
<rect x="11.9999" y="20" width="20" height="16" rx="1" stroke="#185580" stroke-width="3.2" mask="url(#path-3-inside-3_2205_4806)"/>
<path d="M12.9999 8L16.9999 8" stroke="#185580" stroke-width="1.6" stroke-linecap="round"/>
<path d="M20.4999 8L31.9999 8" stroke="#185580" stroke-width="1.6" stroke-linecap="round"/>
</svg>
