<svg width="45" height="44" viewBox="0 0 45 44" fill="none" xmlns="http://www.w3.org/2000/svg">
<path d="M39.1481 10.5666H6.72744C6.33633 10.5666 6.021 10.2486 6.021 9.85697C6.021 9.46659 6.33633 9.15052 6.72744 9.15052H39.1481C39.5392 9.15052 39.8546 9.46659 39.8546 9.85697C39.8546 10.2486 39.5392 10.5666 39.1481 10.5666Z" fill="#185580"/>
<rect x="6.60725" y="2.27998" width="32.5" height="39.43" rx="3.2" stroke="#185580" stroke-width="1.6"/>
<circle cx="22.5001" cy="25.5" r="10.7" stroke="#185580" stroke-width="1.6"/>
<circle cx="22.5001" cy="25.5" r="7.7" stroke="#185580" stroke-width="1.6"/>
<path d="M13.0001 6L17.0001 6" stroke="#185580" stroke-width="1.6" stroke-linecap="round"/>
<path d="M20.5001 6L32.0001 6" stroke="#185580" stroke-width="1.6" stroke-linecap="round"/>
<path d="M15 26.9999C16.5517 27 17.1011 24 18.6207 24C20.1403 24.0001 21.2069 26.9999 22.7586 26.9999C24.3103 26.9999 24.6406 24 26.3793 24C28.118 24 28.4483 27 30 27" stroke="#185580" stroke-width="1.6" stroke-linecap="round"/>
</svg>
