<svg width="44" height="44" viewBox="0 0 44 44" fill="none" xmlns="http://www.w3.org/2000/svg">
<rect x="7.8" y="3.8" width="28.4" height="36.4" rx="3.2" stroke="#185580" stroke-width="1.6"/>
<circle cx="13.685" cy="20.685" r="5.885" stroke="#185580" stroke-width="1.6"/>
<circle cx="28" cy="20" r="8.2" stroke="#185580" stroke-width="1.6"/>
<path d="M4.95502 21.0283C4.93781 20.9078 5.0313 20.8 5.15301 20.8L38.847 20.8C38.9687 20.8 39.0622 20.9078 39.045 21.0283L36.3307 40.0283C36.3166 40.1268 36.2322 40.2 36.1327 40.2H7.8673C7.76777 40.2 7.68338 40.1268 7.66931 40.0283L4.95502 21.0283Z" fill="white" stroke="#185580" stroke-width="1.6"/>
<path d="M12.5 8L16.5 8" stroke="#185580" stroke-width="1.6" stroke-linecap="round"/>
<path d="M20 24L24 24" stroke="#185580" stroke-width="1.6" stroke-linecap="round"/>
<path d="M20 8L31.5 8" stroke="#185580" stroke-width="1.6" stroke-linecap="round"/>
<path fill-rule="evenodd" clip-rule="evenodd" d="M27.9264 15.3176C27.9509 15.3172 27.9754 15.3171 28 15.3171C29.8069 15.3171 31.3705 16.3588 32.1228 17.8745L33.4962 17.5066C32.5679 15.3931 30.4563 13.9171 28 13.9171C27.8505 13.9171 27.7022 13.9225 27.5554 13.9333L27.9264 15.3176Z" fill="#185580"/>
<path fill-rule="evenodd" clip-rule="evenodd" d="M14.3679 18.4005C14.3815 18.4002 14.3951 18.4 14.4087 18.4C15.0725 18.4 15.6418 18.8042 15.8841 19.3798L17.2435 19.0156C16.8361 17.8423 15.7208 17 14.4087 17C14.2701 17 14.1336 17.0094 14 17.0276L14.3679 18.4005Z" fill="#185580"/>
</svg>
