<svg width="44" height="44" viewBox="0 0 44 44" fill="none" xmlns="http://www.w3.org/2000/svg">
<path d="M8.94472 41H26.2723C27.6223 41 28.7168 39.8153 28.7168 38.3489V34.9067C28.7168 33.4442 27.6223 32.2556 26.2723 32.2556H8.94472C7.59472 32.2556 6.5002 33.4442 6.5002 34.9067V38.3489C6.5002 39.8153 7.59472 41 8.94472 41Z" stroke="#185580" stroke-width="1.6" stroke-miterlimit="10" stroke-linecap="round" stroke-linejoin="round"/>
<path d="M12.1351 32.2551L16.6431 20.0328" stroke="#185580" stroke-width="1.6" stroke-miterlimit="10" stroke-linecap="round" stroke-linejoin="round"/>
<path d="M22.2777 32.2551L26.7856 20.0328" stroke="#185580" stroke-width="1.6" stroke-miterlimit="10" stroke-linecap="round" stroke-linejoin="round"/>
<path d="M30 7.00012C30 7.00012 33 7.00012 33 10.6369C33 14.5 33 16.5 33 16.5C33 16.5 33 20 30 20C26.2722 20 10.3394 19.9999 9.66326 20C7.55656 20.0002 7 19 7 13.3762C7 8 7.55656 7.00012 9.66326 7.00012C12.3743 7.00012 30 7.00012 30 7.00012Z" stroke="#185580" stroke-width="1.6" stroke-miterlimit="10" stroke-linecap="round" stroke-linejoin="round"/>
<path d="M33 11H37.7771V16.0861L33 16.0861" stroke="#185580" stroke-width="1.6" stroke-miterlimit="10" stroke-linecap="round" stroke-linejoin="round"/>
<path d="M41.5 13.4236L38.6825 13.4236" stroke="#185580" stroke-width="1.6" stroke-miterlimit="10" stroke-linecap="round" stroke-linejoin="round"/>
<path d="M11 12H16" stroke="#185580" stroke-width="1.6" stroke-miterlimit="10" stroke-linecap="round" stroke-linejoin="round"/>
<path d="M11 15H16" stroke="#185580" stroke-width="1.6" stroke-miterlimit="10" stroke-linecap="round" stroke-linejoin="round"/>
</svg>
